<svg width="117" height="39" viewBox="0 0 117 39" fill="none" xmlns="http://www.w3.org/2000/svg">
<mask id="mask0_2351_3228" style="mask-type:luminance" maskUnits="userSpaceOnUse" x="0" y="0" width="117" height="39">
<path d="M0.195312 0.81543H116.517V38.9334H0.195312V0.81543Z" fill="white"/>
</mask>
<g mask="url(#mask0_2351_3228)">
<path d="M116.517 33.7899C116.517 36.6292 114.216 38.9328 111.376 38.9328H5.33739C2.4981 38.9328 0.195312 36.6292 0.195312 33.7899V6.02402C0.195312 3.1856 2.4981 0.882812 5.33739 0.882812H111.376C114.216 0.882812 116.517 3.1856 116.517 6.02402V33.7899Z" fill="black"/>
</g>
<path d="M30.529 26.0338C29.9133 27.3995 29.6189 28.0083 28.8255 29.2146C27.7194 30.899 26.1604 32.9962 24.2286 33.0136C22.512 33.0293 22.0704 31.8962 19.7406 31.9093C17.4117 31.9223 16.9248 33.0337 15.2073 33.018C13.2756 33.0006 11.7984 31.1063 10.6923 29.4227C7.59872 24.7135 7.27472 19.1865 9.18297 16.2487C10.539 14.1602 12.6772 12.9383 14.6891 12.9383C16.7367 12.9383 18.024 14.0609 19.7162 14.0609C21.3588 14.0609 22.3596 12.9365 24.7268 12.9365C26.5166 12.9365 28.4126 13.9102 29.7635 15.5955C25.3373 18.0211 26.0559 24.3442 30.529 26.0338Z" fill="white"/>
<path d="M22.9318 11.0552C23.7906 9.95166 24.4447 8.39179 24.2078 6.79883C22.8029 6.8955 21.1594 7.7891 20.1997 8.95443C19.3278 10.0126 18.6093 11.5821 18.8897 13.1071C20.4226 13.1541 22.0104 12.2379 22.9318 11.0552Z" fill="white"/>
<path d="M41.0046 18.3219C41.1544 18.9037 41.3155 19.5081 41.5237 20.1613L42.7177 23.6199H39.3184L40.496 20.1387C40.6754 19.5752 40.8461 18.9647 41.0046 18.3219ZM39.9534 16.1768L35.522 29.221H37.5513L38.8743 25.2155H43.1645L44.525 29.221H46.6109L42.1603 16.1768H39.9534Z" fill="white"/>
<path d="M51.8535 21.1924C53.6128 21.1924 54.4002 22.8219 54.4002 24.4367C54.4002 26.5191 53.396 27.8133 51.7786 27.8133C50.6751 27.8133 49.7197 27.0626 49.4541 25.9817C49.4079 25.8145 49.3835 25.5933 49.3835 25.3433V23.7565C49.3835 23.6128 49.4157 23.4386 49.4462 23.2687C49.4567 23.2156 49.4671 23.1616 49.475 23.1085C49.7694 21.9797 50.7466 21.1924 51.8535 21.1924ZM52.3456 19.5576C51.0009 19.5576 49.9244 20.0767 49.2076 21.0635L49.1292 19.7658H47.3237L47.3351 19.9313C47.3882 20.7395 47.41 21.6296 47.41 22.9064V32.9615H49.3835V28.2688C49.9958 29.0013 50.9739 29.4281 52.0817 29.4281C53.2349 29.4281 54.2974 28.9769 55.0717 28.1565C55.9365 27.2429 56.3929 25.9303 56.3929 24.3609C56.3929 22.9743 55.9966 21.7759 55.2459 20.8945C54.5108 20.0323 53.4813 19.5576 52.3456 19.5576Z" fill="white"/>
<path d="M62.0166 21.1924C63.7751 21.1924 64.5633 22.8219 64.5633 24.4367C64.5633 26.5191 63.5573 27.8133 61.9417 27.8133C60.8382 27.8133 59.8819 27.0626 59.6163 25.9817C59.571 25.8145 59.5466 25.5933 59.5466 25.3433V23.7565C59.5466 23.6119 59.5788 23.4368 59.6102 23.267C59.6198 23.2139 59.6293 23.1616 59.6381 23.1085C59.9316 21.9797 60.9088 21.1924 62.0166 21.1924ZM62.5078 19.5576C61.164 19.5576 60.0875 20.0767 59.3707 21.0635L59.2914 19.7658H57.4868L57.4973 19.9313C57.5504 20.7404 57.573 21.6296 57.573 22.9064V32.9615H59.5466V28.2688C60.1589 29.0013 61.1361 29.4281 62.2439 29.4281C63.3971 29.4281 64.4605 28.9769 65.2356 28.1565C66.0988 27.2429 66.5551 25.9303 66.5551 24.3609C66.5551 22.9743 66.1588 21.7759 65.4081 20.8945C64.6739 20.0323 63.6436 19.5576 62.5078 19.5576Z" fill="white"/>
<path d="M75.2398 21.7041C73.3977 20.9907 72.8072 20.4299 72.8072 19.3934C72.8072 18.5207 73.5005 17.6402 75.0508 17.6402C76.3293 17.6402 77.1472 18.0853 77.3675 18.222L77.5347 18.3256L78.0913 16.6787L77.9815 16.6142C77.6506 16.42 76.7082 15.9697 75.1074 15.9697C72.5904 15.9697 70.8328 17.4547 70.8328 19.5816C70.8328 21.2964 71.9337 22.4957 74.2965 23.3554C75.9714 23.9807 76.595 24.6217 76.595 25.7217C76.595 26.9655 75.6335 27.738 74.0866 27.738C73.079 27.738 72.0425 27.4445 71.2421 26.9315L71.0706 26.8217L70.541 28.507L70.6386 28.5715C71.3832 29.0688 72.7854 29.4285 73.9734 29.4285C77.3658 29.4285 78.5685 27.3609 78.5685 25.5894C78.5685 23.7638 77.6044 22.6368 75.2398 21.7041Z" fill="white"/>
<path d="M82.1207 17.5195L80.1846 18.1275V19.7666H78.7676V21.3439H80.1846V26.175C80.1846 27.3438 80.4084 28.1617 80.8683 28.6799C81.309 29.1632 81.9875 29.4289 82.7774 29.4289C83.5238 29.4289 84.0534 29.2817 84.3033 29.1937L84.4139 29.1545L84.319 27.5746L84.13 27.6321C83.88 27.7088 83.624 27.7384 83.212 27.7384C82.4473 27.7384 82.1207 27.2541 82.1207 26.1184V21.3439H84.501V19.7666H82.1207V17.5195Z" fill="white"/>
<path d="M89.3357 21.1166C91.1116 21.1166 91.9198 22.8472 91.9198 24.4558C91.9198 26.4338 90.8163 27.87 89.2982 27.87H89.2791C87.7828 27.87 86.6959 26.4581 86.6959 24.5124C86.6959 22.8219 87.5128 21.1166 89.3357 21.1166ZM89.3932 19.5576C86.6314 19.5576 84.7031 21.6192 84.7031 24.5682C84.7031 27.4301 86.5696 29.4281 89.2416 29.4281H89.2599C91.5192 29.4281 93.95 27.8543 93.95 24.3983C93.95 22.9935 93.5154 21.7872 92.6923 20.9076C91.8641 20.0253 90.7231 19.5576 89.3932 19.5576Z" fill="white"/>
<path d="M99.9942 19.6499L99.8757 19.6195C99.7024 19.5759 99.5604 19.5576 99.3854 19.5576C98.3524 19.5576 97.4266 20.1655 96.911 21.1471L96.8527 19.7658H95.082L95.0934 19.9313C95.1456 20.7125 95.1674 21.5904 95.1674 22.7732L95.1491 29.2208H97.1227V24.1911C97.1227 23.9167 97.1418 23.658 97.1775 23.4255C97.3996 22.2175 98.2148 21.4371 99.2539 21.4371C99.4559 21.4371 99.6144 21.4537 99.7834 21.4702L99.9942 21.492V19.6499Z" fill="white"/>
<path d="M104.3 21.0406C104.901 21.0406 105.389 21.227 105.748 21.5928C106.316 22.1711 106.416 23.022 106.429 23.4305H101.928C102.11 22.2904 102.824 21.0406 104.3 21.0406ZM104.431 19.5391C101.804 19.5391 99.9688 21.638 99.9688 24.6437C99.9688 27.5387 101.794 29.4095 104.62 29.4095C106.106 29.4095 107.14 29.0829 107.745 28.8103L107.864 28.7563L107.484 27.2861L107.32 27.3523C106.782 27.5709 106.067 27.7939 104.847 27.7939C103.99 27.7939 102.012 27.5117 101.891 24.9328L108.261 24.952L108.287 24.8257C108.327 24.6254 108.346 24.3554 108.346 24.0018C108.346 21.9438 107.321 19.5391 104.431 19.5391Z" fill="white"/>
<path d="M36.4173 12.7354C36.6411 12.772 36.9669 12.772 37.3135 12.772C39.2061 12.7807 40.2338 11.8191 40.2338 10.1522C40.2443 8.67764 39.328 7.77011 37.4555 7.77011C36.9982 7.77011 36.6516 7.80756 36.4173 7.85285V12.7354ZM35.522 7.2667C36.0715 7.19354 36.7126 7.13867 37.4145 7.13867C38.687 7.13867 39.5928 7.3956 40.1937 7.89901C40.8147 8.40242 41.1709 9.12618 41.1709 10.1252C41.1709 11.132 40.8147 11.9568 40.1833 12.5246C39.5318 13.1012 38.4736 13.413 37.1402 13.413C36.4992 13.413 35.9801 13.3947 35.522 13.3398V7.2667Z" fill="white"/>
<path d="M44.375 12.8541C45.2303 12.8541 45.8713 12.1303 45.8713 11.1235C45.8713 10.3719 45.4541 9.42866 44.3959 9.42866C43.3473 9.42866 42.8892 10.3083 42.8892 11.1505C42.8892 12.1216 43.4997 12.8541 44.3654 12.8541H44.375ZM44.3445 13.4585C43.0216 13.4585 41.9834 12.5797 41.9834 11.1784C41.9834 9.6943 43.073 8.82422 44.4264 8.82422C45.8408 8.82422 46.7971 9.74917 46.7971 11.0957C46.7971 12.7444 45.5255 13.4585 44.355 13.4585H44.3445Z" fill="white"/>
<path d="M48.2146 8.92383L48.8765 11.1691C49.0089 11.663 49.1413 12.1298 49.2327 12.5888H49.2632C49.3747 12.1394 49.5375 11.663 49.7004 11.1778L50.5052 8.92383H51.2585L52.0215 11.1413C52.2044 11.663 52.3472 12.1394 52.4587 12.5888H52.4892C52.5711 12.1394 52.7034 11.6725 52.8663 11.15L53.5683 8.92383H54.4541L52.8663 13.3578H52.052L51.2986 11.2423C51.1262 10.738 50.9833 10.2982 50.8605 9.77649H50.8405C50.7186 10.3078 50.5661 10.7746 50.3928 11.251L49.5994 13.3578H48.785L47.2983 8.92383H48.2146Z" fill="white"/>
<path d="M55.35 10.1254C55.35 9.65772 55.3396 9.29192 55.3091 8.92438H56.1034L56.1539 9.64901H56.1739C56.4187 9.23618 56.9883 8.82422 57.8026 8.82422C58.4846 8.82422 59.5428 9.19089 59.5428 10.7116V13.3584H58.6474V10.8021C58.6474 10.088 58.3522 9.4844 57.5074 9.4844C56.9273 9.4844 56.4692 9.85978 56.3063 10.3083C56.2663 10.4085 56.2454 10.5557 56.2454 10.6837V13.3584H55.35V10.1254Z" fill="white"/>
<path d="M60.998 6.85449H61.8943V13.3579H60.998V6.85449Z" fill="white"/>
<path d="M65.4156 12.8541C66.2708 12.8541 66.9118 12.1303 66.9118 11.1235C66.9118 10.3719 66.4947 9.42866 65.4365 9.42866C64.3878 9.42866 63.9297 10.3083 63.9297 11.1505C63.9297 12.1216 64.5402 12.8541 65.406 12.8541H65.4156ZM65.3851 13.4585C64.0621 13.4585 63.0239 12.5797 63.0239 11.1784C63.0239 9.6943 64.1126 8.82422 65.4669 8.82422C66.8814 8.82422 67.8377 9.74917 67.8377 11.0957C67.8377 12.7444 66.5661 13.4585 65.3955 13.4585H65.3851Z" fill="white"/>
<path d="M71.5637 11.0957C70.5865 11.0774 69.4777 11.2333 69.4777 12.0946C69.4777 12.6259 69.8645 12.8637 70.3121 12.8637C70.9636 12.8637 71.3808 12.497 71.5227 12.1216C71.5541 12.0398 71.5637 11.9474 71.5637 11.8656V11.0957ZM72.439 12.2958C72.439 12.6808 72.459 13.0553 72.5104 13.3584H71.7056L71.6246 12.7992H71.5942C71.3294 13.1476 70.7903 13.4585 70.0883 13.4585C69.091 13.4585 68.5815 12.8271 68.5815 12.1852C68.5815 11.1139 69.6397 10.5278 71.5428 10.5374V10.4451C71.5428 10.0793 71.4313 9.41037 70.4236 9.41995C69.955 9.41995 69.4777 9.5384 69.1311 9.74917L68.9273 9.20918C69.3349 8.98012 69.935 8.82422 70.556 8.82422C72.0723 8.82422 72.439 9.74917 72.439 10.6384V12.2958Z" fill="white"/>
<path d="M77.2332 10.7293C77.2332 10.6187 77.2236 10.4907 77.1923 10.381C77.0608 9.87755 76.5722 9.45602 75.9007 9.45602C74.974 9.45602 74.4244 10.1885 74.4244 11.1596C74.4244 12.0662 74.9235 12.8074 75.8798 12.8074C76.4807 12.8074 77.0303 12.4416 77.1923 11.8468C77.2236 11.7362 77.2332 11.6264 77.2332 11.4984V10.7293ZM78.1286 6.85449V12.2126C78.1286 12.6062 78.1399 13.0548 78.1695 13.3579H77.3656L77.3255 12.5888H77.3046C77.0303 13.0826 76.4398 13.458 75.6359 13.458C74.4445 13.458 73.5186 12.5522 73.5186 11.2049C73.5082 9.72078 74.5368 8.82371 75.7274 8.82371C76.4912 8.82371 76.9998 9.14422 77.2132 9.4926H77.2332V6.85449H78.1286Z" fill="white"/>
<path d="M83.8085 12.8541C84.6629 12.8541 85.3039 12.1303 85.3039 11.1235C85.3039 10.3719 84.8876 9.42866 83.8285 9.42866C82.7799 9.42866 82.3227 10.3083 82.3227 11.1505C82.3227 12.1216 82.9332 12.8541 83.7981 12.8541H83.8085ZM83.7772 13.4585C82.4542 13.4585 81.416 12.5797 81.416 11.1784C81.416 9.6943 82.5056 8.82422 83.859 8.82422C85.2743 8.82422 86.2306 9.74917 86.2306 11.0957C86.2306 12.7444 84.9582 13.4585 83.7885 13.4585H83.7772Z" fill="white"/>
<path d="M87.3612 10.1254C87.3612 9.65772 87.3508 9.29192 87.3203 8.92438H88.1137L88.1651 9.64901H88.1852C88.4299 9.23618 88.9995 8.82422 89.8138 8.82422C90.4958 8.82422 91.554 9.19089 91.554 10.7116V13.3584H90.6587V10.8021C90.6587 10.088 90.3634 9.4844 89.5186 9.4844C88.9385 9.4844 88.4804 9.85978 88.3175 10.3083C88.2766 10.4085 88.2566 10.5557 88.2566 10.6837V13.3584H87.3612V10.1254Z" fill="white"/>
<path d="M96.2461 7.8623V8.92399H97.5281V9.53801H96.2461V11.9288C96.2461 12.4783 96.4194 12.7901 96.9176 12.7901C97.1614 12.7901 97.3043 12.7718 97.4366 12.7353L97.4776 13.3484C97.3043 13.4033 97.0299 13.4581 96.6833 13.4581C96.2661 13.4581 95.9299 13.3301 95.7165 13.1202C95.4718 12.872 95.3708 12.4783 95.3708 11.9566V9.53801H94.6069V8.92399H95.3708V8.10965L96.2461 7.8623Z" fill="white"/>
<path d="M98.5361 6.85449H99.4315V9.62062H99.4524C99.5943 9.39157 99.8182 9.1808 100.094 9.05277C100.358 8.90645 100.673 8.82371 101.01 8.82371C101.671 8.82371 102.73 9.19038 102.73 10.7198V13.3579H101.834V10.8112C101.834 10.0875 101.539 9.4926 100.694 9.4926C100.114 9.4926 99.6666 9.85926 99.4933 10.2982C99.4419 10.408 99.4315 10.5273 99.4315 10.6832V13.3579H98.5361V6.85449Z" fill="white"/>
<path d="M107.31 10.7009C107.32 10.1966 107.076 9.39102 106.079 9.39102C105.163 9.39102 104.776 10.1426 104.704 10.7009H107.31ZM104.694 11.2784C104.715 12.3679 105.479 12.8165 106.374 12.8165C107.015 12.8165 107.412 12.7163 107.738 12.597L107.901 13.1648C107.585 13.2929 107.035 13.4488 106.252 13.4488C104.745 13.4488 103.829 12.5421 103.829 11.2139C103.829 9.86743 104.715 8.81445 106.149 8.81445C107.758 8.81445 108.175 10.0869 108.175 10.9021C108.175 11.0676 108.166 11.1956 108.145 11.2871L104.694 11.2784Z" fill="white"/>
</svg>
