<svg width="25" height="25" viewBox="0 0 25 25" fill="none" xmlns="http://www.w3.org/2000/svg">
<path opacity="0.4" d="M12.5 5.80654V21.8365C12.33 21.8365 12.15 21.8065 12.01 21.7265L11.97 21.7065C10.05 20.6565 6.7 19.5565 4.53 19.2665L4.24 19.2265C3.28 19.1065 2.5 18.2065 2.5 17.2465V5.16654C2.5 3.97654 3.47 3.07654 4.66 3.17654C6.76 3.34654 9.94 4.40654 11.72 5.51654L11.97 5.66654C12.12 5.75654 12.31 5.80654 12.5 5.80654Z" fill="#3C91E6"/>
<path d="M22.5 5.17638V17.2464C22.5 18.2064 21.72 19.1064 20.76 19.2264L20.43 19.2664C18.25 19.5564 14.89 20.6664 12.97 21.7264C12.84 21.8064 12.68 21.8364 12.5 21.8364V5.80638C12.69 5.80638 12.88 5.75638 13.03 5.66638L13.2 5.55638C14.98 4.43638 18.17 3.36638 20.27 3.18638H20.33C21.52 3.08638 22.5 3.97638 22.5 5.17638Z" fill="#3C91E6"/>
<path d="M8.25 9.74707H6C5.59 9.74707 5.25 9.40707 5.25 8.99707C5.25 8.58707 5.59 8.24707 6 8.24707H8.25C8.66 8.24707 9 8.58707 9 8.99707C9 9.40707 8.66 9.74707 8.25 9.74707Z" fill="#3C91E6"/>
<path d="M9 12.7471H6C5.59 12.7471 5.25 12.4071 5.25 11.9971C5.25 11.5871 5.59 11.2471 6 11.2471H9C9.41 11.2471 9.75 11.5871 9.75 11.9971C9.75 12.4071 9.41 12.7471 9 12.7471Z" fill="#3C91E6"/>
</svg>
