<svg width="25" height="25" viewBox="0 0 25 25" fill="none" xmlns="http://www.w3.org/2000/svg">
<path d="M22.5 22.7646H2.5C2.09 22.7646 1.75 22.4246 1.75 22.0146C1.75 21.6046 2.09 21.2646 2.5 21.2646H22.5C22.91 21.2646 23.25 21.6046 23.25 22.0146C23.25 22.4246 22.91 22.7646 22.5 22.7646Z" fill="#3C91E6"/>
<path d="M3.51001 22.7749C3.31001 22.7749 3.11998 22.6949 2.97998 22.5549C2.83998 22.4149 2.76001 22.2249 2.76001 22.0249L2.75 7.08493C2.75 6.17493 3.20997 5.3149 3.96997 4.8049L7.96997 2.13492C8.89997 1.51492 10.1 1.51492 11.02 2.13492L15.02 4.8049C15.79 5.3149 16.24 6.16493 16.24 7.08493L16.25 22.0049C16.25 22.4149 15.92 22.7549 15.5 22.7549L3.51001 22.7749ZM9.5 3.16495C9.26 3.16495 9.02 3.23491 8.81 3.37491L4.81 6.04496C4.46 6.27496 4.25 6.66493 4.25 7.08493L4.26001 21.2749L14.76 21.2549L14.75 7.08493C14.75 6.66493 14.54 6.2749 14.2 6.0549L10.2 3.38492C9.99001 3.23492 9.74 3.16495 9.5 3.16495Z" fill="#3C91E6"/>
<path d="M20.48 22.7747C20.07 22.7747 19.73 22.4347 19.73 22.0247V18.0146C19.73 17.6046 20.07 17.2646 20.48 17.2646C20.89 17.2646 21.23 17.6046 21.23 18.0146V22.0247C21.23 22.4347 20.9 22.7747 20.48 22.7747Z" fill="#3C91E6"/>
<path d="M20.5 18.7646C18.98 18.7646 17.75 17.5346 17.75 16.0146V14.0146C17.75 12.4946 18.98 11.2646 20.5 11.2646C22.02 11.2646 23.25 12.4946 23.25 14.0146V16.0146C23.25 17.5346 22.02 18.7646 20.5 18.7646ZM20.5 12.7646C19.81 12.7646 19.25 13.3246 19.25 14.0146V16.0146C19.25 16.7046 19.81 17.2646 20.5 17.2646C21.19 17.2646 21.75 16.7046 21.75 16.0146V14.0146C21.75 13.3246 21.19 12.7646 20.5 12.7646Z" fill="#3C91E6"/>
<path d="M15.5 14.7646H3.5C3.09 14.7646 2.75 14.4246 2.75 14.0146C2.75 13.6046 3.09 13.2646 3.5 13.2646H15.5C15.91 13.2646 16.25 13.6046 16.25 14.0146C16.25 14.4246 15.91 14.7646 15.5 14.7646Z" fill="#3C91E6"/>
<path d="M9.5 22.7646C9.09 22.7646 8.75 22.4246 8.75 22.0146V18.2646C8.75 17.8546 9.09 17.5146 9.5 17.5146C9.91 17.5146 10.25 17.8546 10.25 18.2646V22.0146C10.25 22.4246 9.91 22.7646 9.5 22.7646Z" fill="#3C91E6"/>
<path d="M9.5 11.2646C8.26 11.2646 7.25 10.2546 7.25 9.01465C7.25 7.77465 8.26 6.76465 9.5 6.76465C10.74 6.76465 11.75 7.77465 11.75 9.01465C11.75 10.2546 10.74 11.2646 9.5 11.2646ZM9.5 8.26465C9.09 8.26465 8.75 8.60465 8.75 9.01465C8.75 9.42465 9.09 9.76465 9.5 9.76465C9.91 9.76465 10.25 9.42465 10.25 9.01465C10.25 8.60465 9.91 8.26465 9.5 8.26465Z" fill="#3C91E6"/>
</svg>
