<svg width="15" height="15" viewBox="0 0 15 15" fill="none" xmlns="http://www.w3.org/2000/svg">
<path d="M10.8554 13.6217C10.2119 13.6217 9.53421 13.4679 8.83376 13.1718C8.15038 12.8813 7.46132 12.4827 6.78934 11.9987C6.12305 11.5089 5.47954 10.9622 4.8702 10.3643C4.26656 9.75492 3.71986 9.11142 3.23581 8.45082C2.74606 7.76745 2.35312 7.08408 2.07407 6.42349C1.77795 5.71734 1.62988 5.03397 1.62988 4.39046C1.62988 3.94627 1.70961 3.52485 1.86337 3.13192C2.02282 2.72759 2.27909 2.35173 2.62647 2.02713C3.06496 1.59433 3.5661 1.37793 4.10141 1.37793C4.3235 1.37793 4.5513 1.42918 4.74492 1.5203C4.96701 1.6228 5.15494 1.77656 5.29161 1.98157L6.6128 3.84376C6.73239 4.00891 6.8235 4.16836 6.88615 4.32782C6.96018 4.49866 7.00004 4.6695 7.00004 4.83465C7.00004 5.05105 6.9374 5.26176 6.81781 5.46107C6.73239 5.61483 6.60141 5.77998 6.43626 5.94513L6.04902 6.34946C6.05471 6.36654 6.06041 6.37793 6.0661 6.38932C6.13444 6.50891 6.27111 6.71392 6.53307 7.02144C6.81212 7.34034 7.07407 7.63078 7.33603 7.89843C7.67202 8.22873 7.95107 8.49069 8.21303 8.70709C8.53763 8.98044 8.74833 9.11711 8.87362 9.17975L8.86223 9.20823L9.27795 8.7982C9.45448 8.62167 9.62533 8.49069 9.79048 8.40527C10.1037 8.21164 10.5023 8.17747 10.901 8.34262C11.049 8.40526 11.2085 8.49069 11.3793 8.61028L13.27 9.95424C13.4807 10.0966 13.6344 10.2788 13.7256 10.4952C13.811 10.7116 13.8508 10.911 13.8508 11.1103C13.8508 11.3836 13.7882 11.657 13.6686 11.9132C13.549 12.1695 13.401 12.3916 13.213 12.5966C12.8884 12.9554 12.5354 13.2116 12.1253 13.3768C11.7324 13.5362 11.3053 13.6217 10.8554 13.6217ZM4.10141 2.23214C3.7882 2.23214 3.49776 2.36882 3.21872 2.64217C2.95676 2.88704 2.77453 3.1547 2.66063 3.44513C2.54104 3.74126 2.4841 4.05447 2.4841 4.39046C2.4841 4.92007 2.60938 5.49524 2.85995 6.0875C3.11622 6.69114 3.47499 7.31757 3.93057 7.94399C4.38615 8.57041 4.90437 9.17975 5.47385 9.75492C6.04332 10.3187 6.65836 10.8426 7.29048 11.3039C7.90551 11.7538 8.53763 12.1182 9.16405 12.3802C10.1379 12.7959 11.049 12.8927 11.8007 12.5795C12.0912 12.4599 12.3474 12.2777 12.5809 12.0157C12.7119 11.8734 12.8144 11.7196 12.8998 11.5374C12.9682 11.395 13.0023 11.247 13.0023 11.0989C13.0023 11.0078 12.9852 10.9167 12.9397 10.8141C12.9226 10.78 12.8884 10.7173 12.7802 10.6433L10.8896 9.29934C10.7757 9.21962 10.6732 9.16267 10.5764 9.12281C10.4511 9.07155 10.3998 9.0203 10.2062 9.13989C10.0923 9.19684 9.98979 9.28226 9.8759 9.39615L9.4431 9.82326C9.221 10.0397 8.87931 10.0909 8.61736 9.9941L8.4636 9.92577C8.23011 9.80048 7.95676 9.60686 7.65494 9.3506C7.38159 9.11711 7.08546 8.84376 6.72669 8.49069C6.44765 8.20595 6.16861 7.90413 5.87817 7.56814C5.61052 7.25492 5.4169 6.98727 5.29731 6.76517L5.22897 6.59433C5.1948 6.46335 5.18341 6.38932 5.18341 6.30959C5.18341 6.10458 5.25745 5.92235 5.39981 5.77998L5.82692 5.33579C5.94082 5.22189 6.02624 5.11369 6.08319 5.01688C6.12874 4.94285 6.14583 4.88021 6.14583 4.82326C6.14583 4.7777 6.12874 4.70937 6.10027 4.64103C6.06041 4.54991 5.99776 4.44741 5.91804 4.33921L4.59685 2.47132C4.53991 2.3916 4.47157 2.33465 4.38615 2.29479C4.29503 2.25492 4.19822 2.23214 4.10141 2.23214ZM8.86223 9.21392L8.77111 9.60116L8.92487 9.20253C8.8964 9.19684 8.87362 9.20253 8.86223 9.21392Z" fill="#6F6F6F"/>
</svg>
