<svg width="47" height="41" viewBox="0 0 47 41" fill="none" xmlns="http://www.w3.org/2000/svg">
<path d="M47 14.2905C47 18.0332 46.2167 21.5491 44.65 24.8382C43.0833 28.1272 40.9571 31.1328 38.2714 33.8548C35.4738 36.6902 32.2845 39.0719 28.7036 41L25.6821 37.0871C28.4798 34.8188 30.8857 32.3237 32.9 29.6017C34.9143 26.9931 35.9214 24.3278 35.9214 21.6058C35.9214 20.018 35.6417 18.9405 35.0821 18.3734C34.5226 17.8064 33.7952 17.2393 32.9 16.6722C31.669 15.9917 30.55 15.0277 29.5429 13.7801C28.5357 12.5325 28.0321 10.8313 28.0321 8.67635C28.0321 6.29461 28.8155 4.25311 30.3821 2.55187C31.9488 0.850624 33.9631 0 36.425 0C39.3345 0 41.8524 1.19087 43.9786 3.57262C45.9929 5.95436 47 9.52697 47 14.2905ZM21.3179 14.2905C21.3179 18.0332 20.5345 21.5491 18.9679 24.8382C17.4012 28.1272 15.275 31.1328 12.5893 33.8548C9.79167 36.6902 6.60238 39.0719 3.02143 41L0 37.0871C2.79762 34.8188 5.20358 32.3237 7.21786 29.6017C9.23215 26.9931 10.2393 24.3278 10.2393 21.6058C10.2393 20.018 9.95953 18.9405 9.4 18.3734C8.84048 17.8064 8.1131 17.2393 7.21786 16.6722C5.98691 15.9917 4.86786 15.0277 3.86071 13.7801C2.85357 12.5325 2.35 10.8313 2.35 8.67635C2.35 6.29461 3.13334 4.25311 4.7 2.55187C6.26667 0.850624 8.28095 0 10.7429 0C13.6524 0 16.1702 1.19087 18.2964 3.57262C20.3107 5.95436 21.3179 9.52697 21.3179 14.2905Z" fill="#A7E8BD"/>
</svg>
