<svg width="58" height="42" viewBox="0 0 58 42" fill="none" xmlns="http://www.w3.org/2000/svg">
<path d="M57.9997 15.0287V13.8135C57.9618 13.7337 57.9119 13.6569 57.8862 13.5728C57.2267 11.4627 55.0377 10.531 53.0076 11.4967C52.8972 11.5484 52.7777 11.5853 52.6551 11.6325C52.2694 9.29806 51.1666 8.12565 49.3377 8.06954C47.4075 8.01048 46.3137 9.08691 45.7374 11.6119C43.4804 10.8175 42.0176 11.1113 41.0101 12.5613C40.5593 13.211 40.3747 13.9286 40.4428 14.7097C40.5502 15.9619 41.2763 16.8227 42.3564 17.4591C40.5623 18.6773 39.9829 20.2765 40.7227 21.8608C41.063 22.5903 41.6031 23.1425 42.3504 23.4836C43.5106 24.0122 44.6452 23.8661 45.7495 23.2725C46.0475 25.2408 46.1821 25.443 47.8794 26.5948C47.9596 26.6494 48.0564 26.7557 48.0564 26.8384C48.0685 27.8233 48.064 28.8067 48.064 29.9038C47.9021 29.7635 47.8356 29.7104 47.7735 29.6513C44.9114 26.9802 41.0494 26.9374 38.1011 29.5258C37.9619 29.6484 37.6593 29.6971 37.4748 29.6454C36.49 29.3649 35.4961 29.26 34.5265 29.6055C33.9395 29.8152 33.581 29.7502 33.1484 29.2748C32.3663 28.4154 31.2937 27.9842 30.1849 27.7244V26.1503C30.377 26.1932 30.5222 26.2271 30.669 26.2596C34.0908 27.0171 37.3719 24.6176 37.6034 21.1979C37.6488 20.5275 37.3961 20.0742 36.7729 19.7789C35.5748 19.2104 34.3313 19.0612 33.0288 19.3108C31.9487 19.516 31.0411 20.0461 30.1441 20.8258C30.1441 20.1406 30.1168 19.5574 30.1592 18.98C30.1728 18.7969 30.3331 18.5548 30.498 18.4647C31.1969 18.0823 31.7808 17.592 32.0713 16.8626C32.277 16.3443 32.3678 15.7832 32.51 15.2443C34.7019 16.0534 36.2253 15.7463 37.2312 14.2623C37.6518 13.6422 37.8424 12.957 37.7879 12.2173C37.6941 10.9459 36.9892 10.0437 35.8773 9.40437C37.7698 8.01786 38.2856 6.36408 37.3765 4.75018C36.4567 3.11707 34.8275 2.72135 32.4616 3.55414C32.0864 1.19603 30.9246 0 29.008 0C27.0913 0 25.9538 1.18422 25.5589 3.55562C23.2565 2.72578 21.712 3.06096 20.7348 4.61285C20.3264 5.2596 20.1615 5.96245 20.2538 6.72437C20.399 7.92926 21.0873 8.7724 22.1447 9.37337C20.2916 10.7761 19.7727 12.2837 20.5608 13.8696C20.9118 14.5739 21.4503 15.1025 22.1795 15.4288C23.3443 15.9516 24.4773 15.7832 25.5983 15.1778C25.6104 16.7489 26.2639 17.8623 27.6707 18.5223C27.7554 18.5636 27.8644 18.6685 27.8659 18.7467C27.881 19.4097 27.8749 20.0727 27.8749 20.8169C27.5981 20.5969 27.4302 20.4463 27.2472 20.3193C25.3411 18.9859 23.3261 18.8353 21.2128 19.801C20.6319 20.0653 20.3869 20.5024 20.4156 21.1299C20.5245 23.4718 22.2249 25.5597 24.5409 26.1946C25.6436 26.4959 26.7358 26.4456 27.8538 26.14V27.7303C26.4893 28.03 25.3487 28.6635 24.4304 29.6823C24.3472 29.7739 24.0568 29.7576 23.8964 29.703C22.8269 29.3324 21.7499 29.2792 20.6788 29.6321C20.3052 29.7547 20.0813 29.7059 19.7924 29.4416C17.1269 26.9846 13.0153 27.0304 10.3801 29.5229C10.2682 29.6277 10.1471 29.7222 9.9535 29.8861C9.9535 28.9101 9.96863 28.0463 9.94594 27.1825C9.93686 26.8325 10.0291 26.6361 10.3771 26.4619C11.4163 25.9392 12.0214 25.0857 12.1727 23.9414C12.2014 23.7302 12.2302 23.5176 12.2589 23.2976C14.5447 24.1392 16.1436 23.7745 17.1103 22.2123C18.089 20.6309 17.6639 19.1587 15.7337 17.4547C17.6428 15.8881 18.0966 14.3598 17.1315 12.7488C16.1769 11.1556 14.5976 10.785 12.2861 11.6133C11.734 9.20356 10.7795 8.16699 9.02468 8.07249C8.2441 8.03115 7.52555 8.22163 6.88718 8.65722C5.84036 9.37484 5.39561 10.404 5.40318 11.6473C3.13104 10.7643 1.4761 11.1408 0.510973 12.7119C-0.484411 14.3332 -0.0321014 15.8733 1.90118 17.4606C0.0435356 18.9726 -0.439029 20.4286 0.402055 22.0129C0.760575 22.6892 1.29609 23.1986 2.0101 23.5087C3.15827 24.0093 4.2777 23.8528 5.40771 23.24C5.4062 24.8509 6.10206 25.9569 7.52101 26.6214C7.60724 26.6627 7.67985 26.8237 7.68136 26.9314C7.69498 27.7377 7.68893 28.5454 7.68893 29.3604C7.54673 29.3855 7.45597 29.4032 7.3652 29.4165C4.71791 29.8034 3.1023 31.4897 2.84362 34.0988C2.82698 34.2686 2.61066 34.4827 2.43215 34.5654C0.952693 35.2535 0.114634 36.3831 0.0374846 37.9748C-0.06992 40.231 1.73327 41.9926 4.11735 41.9956C10.6282 42.003 17.139 41.997 23.6499 41.997C23.7633 41.997 23.8783 42.0015 23.9902 41.9897C24.6014 41.9276 25.0446 41.461 25.0431 40.8881C25.0416 40.3152 24.5953 39.8486 23.9842 39.7955C23.7966 39.7777 23.606 39.7881 23.4184 39.7881H4.45166C4.26257 39.7881 4.07348 39.7955 3.88438 39.7807C2.99035 39.7128 2.29752 38.9951 2.28996 38.1402C2.2839 37.2823 2.96766 36.5588 3.86169 36.4761C5.13088 36.3565 5.41225 35.9829 5.16719 34.7352C4.80262 32.8762 6.57253 31.2327 8.44984 31.6846C9.47245 31.9312 10.1093 32.569 10.4497 33.5288C10.6947 34.2169 11.2862 34.53 11.8974 34.338C12.5357 34.1372 12.8383 33.5185 12.5781 32.8127C12.383 32.2841 12.1016 31.7865 11.855 31.2652C13.4434 29.4298 16.602 29.3516 18.2948 31.1441C18.1329 31.4011 17.9468 31.655 17.8031 31.9297C17.6488 32.2235 17.5096 32.5292 17.4068 32.8422C17.1844 33.5259 17.4673 34.1254 18.083 34.3306C18.6956 34.5344 19.2765 34.2228 19.5413 33.5451C20.2931 31.624 22.1507 31.0452 23.8707 32.1969C24.5953 32.6827 25.2352 32.5543 25.683 31.8308C27.3409 29.1552 30.6811 29.1493 32.333 31.8189C32.7868 32.5513 33.4206 32.6872 34.1422 32.2058C35.8743 31.0496 37.732 31.6181 38.4762 33.5333C38.7425 34.214 39.3143 34.53 39.9269 34.335C40.5623 34.1328 40.8648 33.5126 40.5941 32.8053C40.3717 32.2265 40.057 31.6816 39.7757 31.1058C41.3398 29.3442 44.7783 29.4431 46.1413 31.2534C45.869 31.8839 45.5755 32.4598 45.3743 33.0652C45.2049 33.5776 45.5407 34.1062 46.0596 34.3085C46.5664 34.5049 47.1624 34.3144 47.4332 33.8463C47.5421 33.6558 47.5996 33.4373 47.6888 33.2335C48.2062 32.039 49.5207 31.3819 50.7884 31.6816C52.2649 32.0301 53.1302 33.3635 52.8276 34.8267C52.6022 35.9224 52.9653 36.3964 54.0907 36.4731C55.0256 36.5366 55.7306 37.2454 55.7321 38.1254C55.7336 39.0306 55.0059 39.7453 54.0393 39.7851C53.8502 39.7925 53.6611 39.7881 53.4735 39.7881C47.0746 39.7881 40.6773 39.7881 34.2799 39.7896C33.4948 39.7896 32.9895 40.2207 32.9789 40.8734C32.9683 41.526 33.4766 41.9941 34.2436 41.9956C40.8664 41.9985 47.4907 42.0044 54.1149 41.9882C55.8289 41.9838 57.2751 40.8896 57.806 39.2964C57.862 39.1266 57.9346 38.9612 57.9997 38.7929V37.4669C57.7062 36.8792 57.4384 36.2782 57.1087 35.7127C56.9649 35.4676 56.7078 35.2756 56.4748 35.0911C55.7805 34.5462 55.2223 33.7326 54.9651 32.9323C54.36 31.0496 53.0651 29.8964 51.0819 29.4918C50.8626 29.4461 50.6402 29.4136 50.3376 29.3619C50.3376 28.535 50.3316 27.6978 50.3482 26.8606C50.3497 26.7646 50.4662 26.6317 50.5645 26.5859C51.9139 25.9362 52.5901 24.8805 52.6083 23.4157C52.6083 23.3847 52.64 23.3552 52.64 23.3552C53.2224 23.5028 53.7867 23.7243 54.3676 23.7804C55.8969 23.9281 57.2735 23.0229 57.797 21.6098C57.859 21.44 57.9316 21.2746 57.9997 21.1078V19.8926C57.6563 18.8752 57.1208 17.9996 55.9696 17.4621C57.1177 16.9187 57.6563 16.0461 57.9997 15.0287ZM42.839 13.8799C43.1203 13.4015 43.7285 13.1711 44.2549 13.4163C44.8252 13.6835 45.3607 14.0202 45.8902 14.314C45.4878 14.9992 45.1338 15.6001 44.7617 16.2336C44.2473 15.9368 43.6816 15.6474 43.1567 15.3004C42.6635 14.9711 42.5561 14.3627 42.839 13.8799ZM44.3411 21.4622C43.7572 21.7501 43.1279 21.5478 42.8314 21.0266C42.544 20.5186 42.6847 19.9162 43.2156 19.5766C43.7179 19.2562 44.2504 18.9815 44.7602 18.6906C45.1308 19.3167 45.4908 19.9265 45.8932 20.6058C45.3819 20.8907 44.8736 21.2008 44.3411 21.4622ZM35.2314 21.5921C34.7715 23.5161 32.8912 24.5822 30.9836 24.0255C30.9292 22.3245 33.3722 20.9055 35.2314 21.5921ZM35.3751 12.9836C35.0907 13.462 34.4871 13.6806 33.9546 13.4295C33.3859 13.1608 32.8488 12.8256 32.3284 12.5362C32.7172 11.8791 33.0788 11.2708 33.4615 10.624C33.9683 10.912 34.5159 11.194 35.0302 11.5248C35.546 11.8585 35.6716 12.4831 35.3751 12.9836ZM34.1256 5.31128C34.6248 5.11194 35.1739 5.40135 35.4084 5.85614C35.655 6.33308 35.5203 6.89565 35.0695 7.23527C34.9515 7.32534 34.8199 7.39769 34.6898 7.47005C34.2693 7.7063 33.8457 7.9396 33.4539 8.15666C33.0833 7.5232 32.7308 6.92519 32.3269 6.2371C32.8882 5.94326 33.4827 5.56968 34.1256 5.31128ZM23.9403 13.465C23.426 13.6791 22.8436 13.3897 22.6076 12.9201C22.3671 12.4388 22.4926 11.854 22.9646 11.5469C23.4925 11.2043 24.0553 10.9134 24.5651 10.6226C24.9448 11.2693 25.2987 11.8688 25.6966 12.5465C25.1505 12.8374 24.5681 13.2036 23.9403 13.465ZM24.5636 8.15961C24.0507 7.86577 23.4714 7.57193 22.9374 7.21312C22.4518 6.88827 22.361 6.26663 22.6575 5.78674C22.96 5.29356 23.5727 5.10899 24.1354 5.38658C24.671 5.64942 25.1807 5.9595 25.6966 6.24596C25.3078 6.90451 24.9523 7.50253 24.5636 8.15961ZM22.7997 21.6054C24.4985 20.8523 26.9174 22.2093 27.0641 23.9989C25.267 24.6605 23.2036 23.5013 22.7997 21.6054ZM13.7671 13.4177C14.292 13.1711 14.9032 13.4015 15.183 13.8784C15.4644 14.3598 15.357 14.9726 14.8654 15.2989C14.342 15.6474 13.7762 15.9368 13.2604 16.2336C12.8807 15.5883 12.5206 14.9741 12.1334 14.3155C12.6628 14.0217 13.1968 13.6835 13.7671 13.4177ZM13.2604 18.6906C13.758 18.9741 14.3041 19.2562 14.8185 19.5854C15.3449 19.9236 15.478 20.5349 15.1846 21.0384C14.8971 21.536 14.2724 21.7472 13.7202 21.4814C13.1696 21.2156 12.6477 20.8922 12.1318 20.6058C12.5327 19.925 12.8867 19.3241 13.2604 18.6906ZM2.43972 13.8814C2.72865 13.3823 3.34736 13.1785 3.90708 13.4399C4.36392 13.654 4.79657 13.9183 5.23677 14.1649C5.33208 14.218 5.4183 14.286 5.48638 14.3317C5.0976 14.9873 4.74362 15.5868 4.36392 16.2262C3.86321 15.9427 3.31711 15.6636 2.80429 15.3343C2.27785 14.9977 2.14625 14.3864 2.43972 13.8814ZM3.89951 21.4828C3.34736 21.7486 2.71957 21.5316 2.43518 21.034C2.14473 20.5275 2.2839 19.9177 2.81034 19.581C3.31408 19.2606 3.84657 18.9859 4.36392 18.6906C4.73303 19.3167 5.09458 19.9265 5.49697 20.6072C4.97658 20.8952 4.45318 21.2185 3.89951 21.4828ZM7.74187 11.0995C7.78272 10.627 8.30461 10.2829 8.80533 10.28C9.35294 10.277 9.85063 10.6403 9.90358 11.1984C9.96258 11.8304 9.9172 12.4727 9.9172 13.0899H7.72675C7.72675 12.4476 7.68288 11.7699 7.74187 11.0995ZM6.56194 17.4562C6.56345 16.2306 7.56791 15.2487 8.81743 15.2517C10.0564 15.2531 11.0835 16.2587 11.0805 17.4651C11.076 18.6729 10.0458 19.6726 8.80836 19.6696C7.56035 19.6681 6.55891 18.6803 6.56194 17.4562ZM9.86576 23.8542C9.80677 24.3622 9.24403 24.6811 8.72364 24.6383C8.19418 24.5955 7.74792 24.213 7.71616 23.6889C7.67834 23.0687 7.70708 22.4456 7.70708 21.8313H9.88543C9.88543 22.4854 9.94291 23.1765 9.86576 23.8542ZM27.9052 3.1466C27.9506 2.58993 28.4921 2.19273 29.0503 2.21193C29.6101 2.2326 30.0972 2.6549 30.1289 3.22191C30.1637 3.82436 30.138 4.42976 30.138 5.02187H27.8946C27.8946 4.42385 27.8553 3.78154 27.9052 3.1466ZM26.7479 9.38813C26.751 8.1729 27.769 7.18211 29.0155 7.18359C30.259 7.18507 31.2756 8.18176 31.2741 9.39551C31.2726 10.6078 30.2499 11.603 29.008 11.6015C27.7645 11.6001 26.7464 10.6034 26.7479 9.38813ZM29.0019 16.5732C28.4165 16.5673 27.946 16.1317 27.8855 15.5366C27.8765 15.4466 27.8795 15.3535 27.8795 15.262V13.7618H30.138C30.138 14.348 30.1652 14.9534 30.1304 15.5544C30.0956 16.145 29.5843 16.5776 29.0019 16.5732ZM48.1305 11.1586C48.1865 10.6093 48.7129 10.2578 49.259 10.2815C49.787 10.3036 50.265 10.6787 50.3013 11.194C50.3452 11.8304 50.3119 12.4712 50.3119 13.0885H48.1154C48.1154 12.4624 48.064 11.8053 48.1305 11.1586ZM50.2998 23.7302C50.2635 24.2455 49.784 24.6191 49.2545 24.6413C48.7114 24.6634 48.185 24.3076 48.129 23.7597C48.064 23.1248 48.1139 22.4795 48.1139 21.8328H50.3104C50.3104 22.453 50.3452 23.0938 50.2998 23.7302ZM49.2227 19.6711C47.9838 19.677 46.9536 18.6832 46.943 17.4739C46.9324 16.2675 47.9581 15.2576 49.1955 15.2517C50.4465 15.2457 51.4555 16.2232 51.4616 17.4473C51.4676 18.6729 50.4692 19.6637 49.2227 19.6711ZM54.1512 13.4251C54.6792 13.1741 55.2888 13.3912 55.5747 13.8651C55.8758 14.3657 55.7532 14.9844 55.2329 15.324C54.72 15.6562 54.1724 15.9383 53.6581 16.2321C53.2784 15.5898 52.9169 14.9785 52.5251 14.3184C53.0439 14.029 53.5809 13.6953 54.1512 13.4251ZM55.5399 21.1093C55.2268 21.5655 54.6278 21.7339 54.0907 21.4696C53.5552 21.2052 53.0439 20.8952 52.522 20.6043C52.9108 19.9516 53.2663 19.3551 53.6626 18.6891C54.1921 18.9978 54.7881 19.2975 55.3266 19.674C55.8016 20.0063 55.8591 20.6427 55.5399 21.1093Z" fill="white"/>
</svg>
