<svg width="54" height="54" viewBox="0 0 54 54" fill="none" xmlns="http://www.w3.org/2000/svg">
<path fill-rule="evenodd" clip-rule="evenodd" d="M42.728 44.9998H36.0005V29.2498C36.0005 28.0055 34.9925 26.9998 33.7505 26.9998H20.2505C19.0062 26.9998 18.0005 28.0055 18.0005 29.2498V44.9998H11.2505L11.264 26.0615L26.996 9.97178L42.7505 26.1538L42.728 44.9998ZM22.5005 44.9998H31.5005V31.4998H22.5005V44.9998ZM45.9545 22.916L28.6092 5.17703C27.761 4.31078 26.24 4.31078 25.3917 5.17703L8.04424 22.9183C7.22299 23.762 6.75049 24.941 6.75049 26.1538V44.9998C6.75049 47.4815 8.65624 49.4998 10.9985 49.4998H20.2505H33.7505H43.0002C45.3425 49.4998 47.2505 47.4815 47.2505 44.9998V26.1538C47.2505 24.941 46.778 23.762 45.9545 22.916V22.916Z" fill="white"/>
<mask id="mask0_307_926" style="mask-type:luminance" maskUnits="userSpaceOnUse" x="6" y="4" width="42" height="46">
<path fill-rule="evenodd" clip-rule="evenodd" d="M42.728 44.9998H36.0005V29.2498C36.0005 28.0055 34.9925 26.9998 33.7505 26.9998H20.2505C19.0062 26.9998 18.0005 28.0055 18.0005 29.2498V44.9998H11.2505L11.264 26.0615L26.996 9.97178L42.7505 26.1538L42.728 44.9998ZM22.5005 44.9998H31.5005V31.4998H22.5005V44.9998ZM45.9545 22.916L28.6092 5.17703C27.761 4.31078 26.24 4.31078 25.3917 5.17703L8.04424 22.9183C7.22299 23.762 6.75049 24.941 6.75049 26.1538V44.9998C6.75049 47.4815 8.65624 49.4998 10.9985 49.4998H20.2505H33.7505H43.0002C45.3425 49.4998 47.2505 47.4815 47.2505 44.9998V26.1538C47.2505 24.941 46.778 23.762 45.9545 22.916V22.916Z" fill="white"/>
</mask>
<g mask="url(#mask0_307_926)">
<rect width="54" height="54" fill="white"/>
</g>
</svg>
