<svg width="75" height="75" viewBox="0 0 75 75" fill="none" xmlns="http://www.w3.org/2000/svg">
<rect width="74.5" height="74.9724" rx="10" fill="#3C91E6" fill-opacity="0.02"/>
<path fill-rule="evenodd" clip-rule="evenodd" d="M38.8587 15.6497L56.204 33.3887C57.0275 34.2347 57.5 35.4137 57.5 36.6264V55.4724C57.5 57.9542 55.592 59.9724 53.2497 59.9724H44H30.5H21.248C18.9058 59.9724 17 57.9542 17 55.4724V36.6264C17 35.4137 17.4725 34.2347 18.2937 33.3909L35.6413 15.6497C36.4895 14.7834 38.0105 14.7834 38.8587 15.6497ZM52.9775 55.4724H46.25H21.5L21.5135 36.5342L37.2455 20.4444L53 36.6264L52.9775 55.4724Z" fill="#3C91E6"/>
<path fill-rule="evenodd" clip-rule="evenodd" d="M29.5826 40.1556C30.7089 40.5455 31.6062 41.4963 31.9816 42.7017L32.022 42.8238C32.4519 44.1024 32.2773 45.4788 31.5567 46.511C31.4255 46.6984 31.4548 46.9223 31.593 47.0282L33.6842 48.6305C33.7579 48.6865 33.8296 48.6865 33.874 48.6814C33.9244 48.6733 33.9981 48.6458 34.0577 48.5603L34.2908 48.2264C34.9862 47.2318 36.1065 46.6179 37.2893 46.5833C38.6175 46.5558 39.8104 47.1697 40.5533 48.2518L40.6723 48.4259C40.7319 48.5114 40.8046 48.5399 40.856 48.5481C40.9004 48.5572 40.9731 48.5542 41.0458 48.4972L43.1259 46.9142C43.2712 46.8042 43.3035 46.5691 43.1955 46.4113L42.9331 46.0295C42.2569 45.0441 42.056 43.7655 42.3962 42.61C42.7655 41.3518 43.7052 40.3562 44.9112 39.949L45.1141 39.8797C45.2766 39.8258 45.3644 39.6222 45.3069 39.4349L44.5126 36.8685C44.4752 36.7484 44.3985 36.6944 44.3561 36.672C44.2956 36.6404 44.23 36.6354 44.1674 36.6567L43.8243 36.7718C42.6505 37.1657 41.3556 36.952 40.3615 36.1976L40.2525 36.1152C39.3078 35.3985 38.7457 34.243 38.7497 33.0255L38.7517 32.7405C38.7517 32.6051 38.6881 32.5206 38.6498 32.4819C38.6135 32.4442 38.5519 32.3994 38.4651 32.3994L35.8945 32.3964C35.7371 32.3964 35.6089 32.5481 35.6079 32.7354L35.6069 32.9817C35.6018 34.2186 35.0276 35.3954 34.0708 36.1314L33.9406 36.2312C32.8879 37.0385 31.5153 37.2665 30.2719 36.839C30.2245 36.8227 30.1801 36.8257 30.1377 36.8481C30.1054 36.8644 30.0469 36.9061 30.0186 36.9988L29.194 39.6415C29.1345 39.8339 29.2324 40.0345 29.4171 40.0986L29.5826 40.1556ZM33.8326 50.7205C33.3421 50.7205 32.8657 50.5597 32.464 50.2512L30.3729 48.6499C29.3737 47.8864 29.1527 46.4174 29.8793 45.376C30.2568 44.8364 30.3345 44.1432 30.1125 43.4855L30.057 43.3145C29.8723 42.722 29.4504 42.2619 28.9286 42.0817H28.9276L28.7631 42.0237C27.5338 41.5992 26.8778 40.2849 27.2684 39.0307L28.0919 36.389C28.2786 35.7914 28.6813 35.3089 29.2263 35.031C29.7592 34.7602 30.3618 34.7184 30.9249 34.9129C31.5295 35.1206 32.2006 35.0076 32.7184 34.6105L32.8486 34.5108C33.3088 34.1565 33.5863 33.5813 33.5884 32.9736L33.5894 32.7282C33.5944 31.4211 34.6289 30.3604 35.8935 30.3604H35.8975L38.4681 30.3634C39.0757 30.3644 39.649 30.6067 40.0809 31.0455C40.528 31.4985 40.7723 32.1042 40.7702 32.7506L40.7682 33.0347C40.7662 33.6109 41.0276 34.1555 41.4686 34.4894L41.5766 34.5719C42.0399 34.9231 42.6434 35.0238 43.1854 34.8406L43.5275 34.7256C44.1099 34.5301 44.7296 34.578 45.2756 34.8599C45.8357 35.1491 46.2495 35.6469 46.4393 36.2628L47.2335 38.8292C47.6171 40.0691 46.953 41.4068 45.755 41.8109L45.5521 41.8791C44.9708 42.0766 44.5136 42.5652 44.3309 43.1883C44.1634 43.7594 44.2603 44.3875 44.5923 44.87L44.8547 45.2518C45.5753 46.3024 45.3452 47.7764 44.342 48.5389L42.2619 50.1229C41.7623 50.5037 41.1497 50.6574 40.5351 50.5586C39.9154 50.4579 39.3744 50.1117 39.0121 49.5844L38.893 49.4093C38.5398 48.8962 37.9746 48.5847 37.3822 48.6183C36.7887 48.6346 36.276 48.9186 35.9409 49.3991L35.7078 49.733C35.3424 50.2553 34.8005 50.5963 34.1838 50.694C34.0657 50.7124 33.9487 50.7205 33.8326 50.7205ZM37.2501 39.0133C36.4155 39.0133 35.7363 39.6984 35.7363 40.5403C35.7363 41.3822 36.4155 42.0673 37.2501 42.0673C38.0848 42.0673 38.764 41.3822 38.764 40.5403C38.764 39.6984 38.0848 39.0133 37.2501 39.0133ZM37.2501 44.1034C35.3023 44.1034 33.7177 42.5051 33.7177 40.5403C33.7177 38.5756 35.3023 36.9773 37.2501 36.9773C39.198 36.9773 40.7826 38.5756 40.7826 40.5403C40.7826 42.5051 39.198 44.1034 37.2501 44.1034Z" fill="#3C91E6"/>
<mask id="mask0_2503_7517" style="mask-type:luminance" maskUnits="userSpaceOnUse" x="27" y="30" width="21" height="21">
<path fill-rule="evenodd" clip-rule="evenodd" d="M29.5826 40.1556C30.7089 40.5455 31.6062 41.4963 31.9816 42.7017L32.022 42.8238C32.4519 44.1024 32.2773 45.4788 31.5567 46.511C31.4255 46.6984 31.4548 46.9223 31.593 47.0282L33.6842 48.6305C33.7579 48.6865 33.8296 48.6865 33.874 48.6814C33.9244 48.6733 33.9981 48.6458 34.0577 48.5603L34.2908 48.2264C34.9862 47.2318 36.1065 46.6179 37.2893 46.5833C38.6175 46.5558 39.8104 47.1697 40.5533 48.2518L40.6723 48.4259C40.7319 48.5114 40.8046 48.5399 40.856 48.5481C40.9004 48.5572 40.9731 48.5542 41.0458 48.4972L43.1259 46.9142C43.2712 46.8042 43.3035 46.5691 43.1955 46.4113L42.9331 46.0295C42.2569 45.0441 42.056 43.7655 42.3962 42.61C42.7655 41.3518 43.7052 40.3562 44.9112 39.949L45.1141 39.8797C45.2766 39.8258 45.3644 39.6222 45.3069 39.4349L44.5126 36.8685C44.4752 36.7484 44.3985 36.6944 44.3561 36.672C44.2956 36.6404 44.23 36.6354 44.1674 36.6567L43.8243 36.7718C42.6505 37.1657 41.3556 36.952 40.3615 36.1976L40.2525 36.1152C39.3078 35.3985 38.7457 34.243 38.7497 33.0255L38.7517 32.7405C38.7517 32.6051 38.6881 32.5206 38.6498 32.4819C38.6135 32.4442 38.5519 32.3994 38.4651 32.3994L35.8945 32.3964C35.7371 32.3964 35.6089 32.5481 35.6079 32.7354L35.6069 32.9817C35.6018 34.2186 35.0276 35.3954 34.0708 36.1314L33.9406 36.2312C32.8879 37.0385 31.5153 37.2665 30.2719 36.839C30.2245 36.8227 30.1801 36.8257 30.1377 36.8481C30.1054 36.8644 30.0469 36.9061 30.0186 36.9988L29.194 39.6415C29.1345 39.8339 29.2324 40.0345 29.4171 40.0986L29.5826 40.1556ZM33.8326 50.7205C33.3421 50.7205 32.8657 50.5597 32.464 50.2512L30.3729 48.6499C29.3737 47.8864 29.1527 46.4174 29.8793 45.376C30.2568 44.8364 30.3345 44.1432 30.1125 43.4855L30.057 43.3145C29.8723 42.722 29.4504 42.2619 28.9286 42.0817H28.9276L28.7631 42.0237C27.5338 41.5992 26.8778 40.2849 27.2684 39.0307L28.0919 36.389C28.2786 35.7914 28.6813 35.3089 29.2263 35.031C29.7592 34.7602 30.3618 34.7184 30.9249 34.9129C31.5295 35.1206 32.2006 35.0076 32.7184 34.6105L32.8486 34.5108C33.3088 34.1565 33.5863 33.5813 33.5884 32.9736L33.5894 32.7282C33.5944 31.4211 34.6289 30.3604 35.8935 30.3604H35.8975L38.4681 30.3634C39.0757 30.3644 39.649 30.6067 40.0809 31.0455C40.528 31.4985 40.7723 32.1042 40.7702 32.7506L40.7682 33.0347C40.7662 33.6109 41.0276 34.1555 41.4686 34.4894L41.5766 34.5719C42.0399 34.9231 42.6434 35.0238 43.1854 34.8406L43.5275 34.7256C44.1099 34.5301 44.7296 34.578 45.2756 34.8599C45.8357 35.1491 46.2495 35.6469 46.4393 36.2628L47.2335 38.8292C47.6171 40.0691 46.953 41.4068 45.755 41.8109L45.5521 41.8791C44.9708 42.0766 44.5136 42.5652 44.3309 43.1883C44.1634 43.7594 44.2603 44.3875 44.5923 44.87L44.8547 45.2518C45.5753 46.3024 45.3452 47.7764 44.342 48.5389L42.2619 50.1229C41.7623 50.5037 41.1497 50.6574 40.5351 50.5586C39.9154 50.4579 39.3744 50.1117 39.0121 49.5844L38.893 49.4093C38.5398 48.8962 37.9746 48.5847 37.3822 48.6183C36.7887 48.6346 36.276 48.9186 35.9409 49.3991L35.7078 49.733C35.3424 50.2553 34.8005 50.5963 34.1838 50.694C34.0657 50.7124 33.9487 50.7205 33.8326 50.7205ZM37.2501 39.0133C36.4155 39.0133 35.7363 39.6984 35.7363 40.5403C35.7363 41.3822 36.4155 42.0673 37.2501 42.0673C38.0848 42.0673 38.764 41.3822 38.764 40.5403C38.764 39.6984 38.0848 39.0133 37.2501 39.0133ZM37.2501 44.1034C35.3023 44.1034 33.7177 42.5051 33.7177 40.5403C33.7177 38.5756 35.3023 36.9773 37.2501 36.9773C39.198 36.9773 40.7826 38.5756 40.7826 40.5403C40.7826 42.5051 39.198 44.1034 37.2501 44.1034Z" fill="white"/>
</mask>
<g mask="url(#mask0_2503_7517)">
<rect x="25.1389" y="28.3242" width="24.2222" height="24.4322" fill="#3C91E6"/>
</g>
</svg>