<svg width="16" height="15" viewBox="0 0 16 15" fill="none" xmlns="http://www.w3.org/2000/svg">
<path d="M4.54531 0H10.8453C13.2453 0 15.1953 1.95 15.1953 4.35V10.65C15.1953 11.8037 14.737 12.9101 13.9212 13.7259C13.1054 14.5417 11.999 15 10.8453 15H4.54531C2.14531 15 0.195312 13.05 0.195312 10.65V4.35C0.195313 3.19631 0.653615 2.08987 1.4694 1.27409C2.28518 0.458302 3.39162 0 4.54531 0ZM4.39531 1.5C3.67923 1.5 2.99247 1.78446 2.48612 2.29081C1.97978 2.79716 1.69531 3.48392 1.69531 4.2V10.8C1.69531 12.2925 2.90281 13.5 4.39531 13.5H10.9953C11.7114 13.5 12.3982 13.2155 12.9045 12.7092C13.4108 12.2028 13.6953 11.5161 13.6953 10.8V4.2C13.6953 2.7075 12.4878 1.5 10.9953 1.5H4.39531ZM11.6328 2.625C11.8815 2.625 12.1199 2.72377 12.2957 2.89959C12.4715 3.0754 12.5703 3.31386 12.5703 3.5625C12.5703 3.81114 12.4715 4.0496 12.2957 4.22541C12.1199 4.40123 11.8815 4.5 11.6328 4.5C11.3842 4.5 11.1457 4.40123 10.9699 4.22541C10.7941 4.0496 10.6953 3.81114 10.6953 3.5625C10.6953 3.31386 10.7941 3.0754 10.9699 2.89959C11.1457 2.72377 11.3842 2.625 11.6328 2.625ZM7.69531 3.75C8.68987 3.75 9.6437 4.14509 10.347 4.84835C11.0502 5.55161 11.4453 6.50544 11.4453 7.5C11.4453 8.49456 11.0502 9.44839 10.347 10.1517C9.6437 10.8549 8.68987 11.25 7.69531 11.25C6.70075 11.25 5.74692 10.8549 5.04366 10.1517C4.3404 9.44839 3.94531 8.49456 3.94531 7.5C3.94531 6.50544 4.3404 5.55161 5.04366 4.84835C5.74692 4.14509 6.70075 3.75 7.69531 3.75ZM7.69531 5.25C7.09858 5.25 6.52628 5.48705 6.10432 5.90901C5.68236 6.33097 5.44531 6.90326 5.44531 7.5C5.44531 8.09674 5.68236 8.66903 6.10432 9.09099C6.52628 9.51295 7.09858 9.75 7.69531 9.75C8.29205 9.75 8.86435 9.51295 9.2863 9.09099C9.70826 8.66903 9.94531 8.09674 9.94531 7.5C9.94531 6.90326 9.70826 6.33097 9.2863 5.90901C8.86435 5.48705 8.29205 5.25 7.69531 5.25Z" fill="black"/>
</svg>
