<svg width="155" height="33" viewBox="0 0 155 33" fill="none" xmlns="http://www.w3.org/2000/svg">
<path d="M25.6156 32.0555H21.5632C19.7373 32.0555 17.9777 31.3877 16.6082 30.1748C13.7171 27.6146 8.8271 22.4779 8.55232 16.83C8.4164 14.0275 9.40917 11.4643 11.504 9.2084C12.0507 8.61894 12.9725 8.58496 13.5605 9.13306C14.15 9.67967 14.1839 10.6015 13.6358 11.1895C12.0728 12.8722 11.3607 14.6701 11.4597 16.6882C11.6917 21.4408 16.4871 26.1786 18.5377 27.9942C19.3738 28.7359 20.4493 29.1436 21.5632 29.1436H25.6156C26.8551 29.1436 27.8626 28.1361 27.8626 26.8966V13.3937C27.8626 12.6462 27.4933 11.9503 26.8743 11.5323L16.6481 4.6124C15.8829 4.09385 14.8945 4.09533 14.1293 4.6124L3.90018 11.5323C3.28117 11.9503 2.91184 12.6462 2.91184 13.3937V26.8966C2.91184 28.1361 3.91938 29.1436 5.15887 29.1436H11.7773C12.581 29.1436 13.2325 29.7951 13.2325 30.5988C13.2325 31.4025 12.581 32.054 11.7773 32.054H5.15887C2.31499 32.054 0 29.7405 0 26.8951V13.3922C0 11.677 0.847993 10.08 2.26772 9.11976L12.4968 2.20138C14.2534 1.0136 16.5226 1.0136 18.2791 2.20138L28.5067 9.12272C29.9265 10.083 30.7745 11.68 30.7745 13.3952V26.8981C30.7745 29.7419 28.4609 32.0569 25.6156 32.0569V32.0555Z" fill="#3C91E6"/>
<path d="M12.2754 24.5187C11.9046 24.5187 11.5338 24.3783 11.2501 24.0962C10.931 23.78 10.7892 23.3531 10.8247 22.9379V22.9158C10.8867 20.9539 11.4806 16.1968 15.6378 14.3915C16.375 14.071 17.2319 14.4093 17.5525 15.1465C17.873 15.8836 17.5347 16.7405 16.7975 17.0611C14.1664 18.2045 13.7793 21.6009 13.735 23.0089C13.7291 23.2098 13.7143 23.6796 13.3081 24.0888C13.0229 24.3754 12.6492 24.5187 12.2754 24.5187ZM11.2413 22.0397C11.2413 22.0397 11.2413 22.0397 11.2398 22.0412C11.2398 22.0412 11.2398 22.0412 11.2413 22.0397Z" fill="#A7E8BD"/>
<path d="M26.4591 6.025C26.1873 6.025 25.9125 5.94966 25.6673 5.79011L22.3255 3.61989C21.6519 3.1826 21.4598 2.27995 21.8971 1.60628C22.3344 0.932614 23.237 0.74056 23.9107 1.17785L27.2524 3.34806C27.9261 3.78536 28.1182 4.68801 27.6809 5.36168C27.4017 5.79158 26.9348 6.025 26.4591 6.025Z" fill="#A7E8BD"/>
<path d="M38.1037 26.7685C37.6025 26.7685 37.2356 26.6879 37.0029 26.5268C36.7702 26.3837 36.627 26.1868 36.5733 25.9362C36.5196 25.6856 36.4928 25.4081 36.4928 25.1038V9.61178C36.4928 9.00319 36.6091 8.58255 36.8418 8.34986C37.0924 8.11717 37.5399 8.00082 38.1843 8.00082H48.6555C48.9598 8.00082 49.2283 8.03662 49.461 8.10822C49.6937 8.16191 49.8816 8.30511 50.0248 8.53781C50.168 8.7526 50.2396 9.11954 50.2396 9.63863C50.2396 10.1398 50.1591 10.5068 49.998 10.7395C49.8548 10.9721 49.6579 11.1153 49.4073 11.169C49.1746 11.2227 48.9061 11.2496 48.6018 11.2496H39.7415V15.7603H45.8363C46.1406 15.7603 46.4002 15.7961 46.615 15.8677C46.8477 15.9214 47.0177 16.0556 47.1251 16.2704C47.2504 16.4673 47.313 16.7984 47.313 17.2638C47.313 17.6934 47.2504 18.0156 47.1251 18.2304C46.9998 18.4273 46.8208 18.5526 46.5881 18.6063C46.3733 18.6421 46.1138 18.66 45.8095 18.66H39.7415V25.1307C39.7415 25.435 39.7057 25.7124 39.6341 25.963C39.5804 26.1957 39.4372 26.3837 39.2046 26.5268C38.9719 26.6879 38.6049 26.7685 38.1037 26.7685ZM57.5695 26.7685C56.9072 26.7685 56.3165 26.7237 55.7974 26.6342C55.2962 26.5447 54.8577 26.3926 54.4818 26.1778C54.1238 25.963 53.8285 25.6766 53.5958 25.3186C53.3631 24.9427 53.1841 24.4863 53.0588 23.9493C52.9514 23.4123 52.8977 22.7679 52.8977 22.0162V9.07479C52.8977 8.7705 52.9246 8.50201 52.9783 8.26931C53.0498 8.01872 53.193 7.82182 53.4078 7.67863C53.6405 7.51753 54.0075 7.43698 54.5087 7.43698C55.0098 7.43698 55.3678 7.50858 55.5826 7.65178C55.8153 7.79498 55.9585 7.99187 56.0122 8.24246C56.0838 8.47516 56.1196 8.74365 56.1196 9.04794V21.8819C56.1196 22.222 56.1375 22.5084 56.1733 22.7411C56.227 22.9559 56.3076 23.1349 56.415 23.2781C56.5403 23.4034 56.6924 23.4929 56.8714 23.5466C57.0683 23.6003 57.301 23.6271 57.5695 23.6271C57.8022 23.6271 58.008 23.654 58.187 23.7077C58.3839 23.7614 58.5361 23.8956 58.6435 24.1104C58.7688 24.3252 58.8314 24.6742 58.8314 25.1575C58.8314 25.6587 58.7688 26.0257 58.6435 26.2584C58.5361 26.4911 58.3839 26.6342 58.187 26.6879C57.9901 26.7416 57.7843 26.7685 57.5695 26.7685ZM62.4833 26.7685C62 26.7685 61.6421 26.6879 61.4094 26.5268C61.1767 26.3837 61.0335 26.1957 60.9798 25.963C60.9261 25.7124 60.8992 25.435 60.8992 25.1307V15.1427C60.8992 14.8563 60.9261 14.5968 60.9798 14.3641C61.0514 14.1135 61.1946 13.9166 61.4094 13.7734C61.6421 13.6302 62.009 13.5586 62.5102 13.5586C63.0114 13.5586 63.3694 13.6302 63.5842 13.7734C63.8168 13.9166 63.96 14.1135 64.0137 14.3641C64.0674 14.6147 64.0943 14.8921 64.0943 15.1964V25.1575C64.0943 25.4618 64.0674 25.7393 64.0137 25.9899C63.96 26.2226 63.8168 26.4105 63.5842 26.5537C63.3694 26.6969 63.0024 26.7685 62.4833 26.7685ZM62.4833 10.9542C61.9642 10.9542 61.5794 10.8826 61.3288 10.7395C61.0961 10.5784 60.944 10.3636 60.8724 10.0951C60.8187 9.82657 60.7918 9.53123 60.7918 9.20904C60.7918 8.86895 60.8187 8.5736 60.8724 8.32301C60.944 8.07242 61.1051 7.87552 61.3557 7.73233C61.6063 7.57123 61.9911 7.49068 62.5102 7.49068C63.0472 7.49068 63.432 7.57123 63.6647 7.73233C63.8974 7.89342 64.0495 8.10822 64.1211 8.37671C64.1927 8.6273 64.2285 8.92265 64.2285 9.26274C64.2285 9.56703 64.1927 9.85342 64.1211 10.1219C64.0495 10.3904 63.8974 10.5963 63.6647 10.7395C63.432 10.8826 63.0382 10.9542 62.4833 10.9542ZM77.825 13.9077C78.1651 14.212 78.3799 14.4805 78.4694 14.7131C78.5768 14.9458 78.5768 15.1875 78.4694 15.4381C78.3799 15.6708 78.183 15.9572 77.8787 16.2973L69.3675 26.151C69.0632 26.4732 68.7947 26.6879 68.562 26.7953C68.3293 26.9206 68.0966 26.9385 67.8639 26.849C67.6491 26.7595 67.3896 26.5895 67.0853 26.3389C66.781 26.0346 66.5751 25.7751 66.4677 25.5603C66.3603 25.3276 66.3603 25.0859 66.4677 24.8353C66.593 24.5847 66.7989 24.2984 67.0853 23.9762L75.5965 14.1225C76.044 13.6392 76.4109 13.3796 76.6973 13.3438C77.0016 13.308 77.3775 13.496 77.825 13.9077ZM67.1121 13.9077C67.4164 13.6392 67.6759 13.4691 67.8907 13.3975C68.1234 13.3259 68.3472 13.3528 68.562 13.4781C68.7947 13.5855 69.0542 13.8003 69.3406 14.1225L77.8518 23.9762C78.1561 24.2984 78.362 24.5847 78.4694 24.8353C78.5768 25.0859 78.5857 25.3276 78.4962 25.5603C78.4067 25.7751 78.1919 26.0346 77.8518 26.3389C77.5475 26.6074 77.2791 26.7774 77.0464 26.849C76.8316 26.9385 76.6078 26.9206 76.3751 26.7953C76.1603 26.6879 75.8918 26.4732 75.5696 26.151L67.0584 16.2973C66.772 15.9751 66.5751 15.6887 66.4677 15.4381C66.3603 15.1875 66.3603 14.9458 66.4677 14.7131C66.5751 14.4626 66.7899 14.1941 67.1121 13.9077Z" fill="#A7E8BD"/>
<path d="M94.2243 26.7416C93.7231 26.7416 93.3561 26.67 93.1234 26.5268C92.8907 26.3837 92.7475 26.1868 92.6938 25.9362C92.6401 25.6677 92.6133 25.3902 92.6133 25.1038V9.61178C92.6133 9.32539 92.6401 9.05689 92.6938 8.8063C92.7654 8.55571 92.9086 8.35881 93.1234 8.21561C93.3561 8.07242 93.732 8.00082 94.2511 8.00082C94.7523 8.00082 95.1103 8.07242 95.3251 8.21561C95.5578 8.35881 95.701 8.55571 95.7547 8.8063C95.8263 9.05689 95.8621 9.33434 95.8621 9.63863V25.1307C95.8621 25.4171 95.8263 25.6856 95.7547 25.9362C95.701 26.1868 95.5578 26.3837 95.3251 26.5268C95.0924 26.67 94.7254 26.7416 94.2243 26.7416ZM82.4643 26.7416C81.9631 26.7416 81.5961 26.67 81.3634 26.5268C81.1486 26.3837 81.0054 26.1868 80.9338 25.9362C80.8801 25.6677 80.8533 25.3902 80.8533 25.1038V9.61178C80.8533 9.32539 80.8801 9.05689 80.9338 8.8063C81.0054 8.55571 81.1576 8.35881 81.3903 8.21561C81.623 8.07242 81.9899 8.00082 82.4911 8.00082C83.0102 8.00082 83.3771 8.07242 83.5919 8.21561C83.8246 8.35881 83.9678 8.55571 84.0215 8.8063C84.0752 9.05689 84.1021 9.33434 84.1021 9.63863V25.1307C84.1021 25.4171 84.0663 25.6856 83.9947 25.9362C83.941 26.1868 83.7978 26.3837 83.5651 26.5268C83.3503 26.67 82.9833 26.7416 82.4643 26.7416ZM83.2429 18.66V15.7603H93.0429L93.016 18.66H83.2429ZM104.986 26.9296C104.126 26.9296 103.285 26.7685 102.462 26.4463C101.656 26.1062 100.922 25.6319 100.26 25.0233C99.6157 24.4147 99.0966 23.6987 98.7028 22.8753C98.327 22.052 98.139 21.148 98.139 20.1636C98.139 19.2149 98.318 18.3289 98.676 17.5055C99.034 16.6821 99.5262 15.9572 100.153 15.3307C100.779 14.7042 101.495 14.2209 102.301 13.8808C103.124 13.5228 104.001 13.3438 104.932 13.3438C106.185 13.3438 107.321 13.6481 108.342 14.2567C109.362 14.8474 110.176 15.6529 110.785 16.6731C111.394 17.6934 111.698 18.8479 111.698 20.1367C111.698 21.157 111.51 22.0878 111.134 22.929C110.758 23.7524 110.248 24.4684 109.604 25.077C108.959 25.6677 108.234 26.1241 107.429 26.4463C106.641 26.7685 105.827 26.9296 104.986 26.9296ZM104.932 23.7614C105.523 23.7614 106.086 23.6182 106.623 23.3318C107.178 23.0275 107.626 22.5979 107.966 22.043C108.324 21.4881 108.503 20.8348 108.503 20.083C108.503 19.3849 108.342 18.7674 108.02 18.2304C107.715 17.6934 107.295 17.2728 106.758 16.9685C106.221 16.6642 105.603 16.5121 104.905 16.5121C104.243 16.5121 103.643 16.6731 103.106 16.9953C102.569 17.2996 102.14 17.7292 101.817 18.2841C101.513 18.8211 101.361 19.4297 101.361 20.1099C101.361 20.8616 101.531 21.515 101.871 22.0699C102.211 22.6068 102.65 23.0275 103.187 23.3318C103.742 23.6182 104.323 23.7614 104.932 23.7614ZM115.365 26.7416C114.882 26.7416 114.524 26.67 114.291 26.5268C114.077 26.3837 113.942 26.1868 113.889 25.9362C113.835 25.6856 113.808 25.4171 113.808 25.1307V15.089C113.808 14.8026 113.835 14.5431 113.889 14.3104C113.942 14.0777 114.086 13.8898 114.318 13.7466C114.551 13.6034 114.918 13.5318 115.419 13.5318C115.938 13.5318 116.314 13.6392 116.547 13.854C116.797 14.0688 116.923 14.4089 116.923 14.8742L116.681 15.626C116.77 15.4291 116.923 15.2143 117.137 14.9816C117.352 14.7489 117.612 14.5163 117.916 14.2836C118.238 14.0509 118.596 13.8629 118.99 13.7197C119.384 13.5765 119.796 13.5049 120.225 13.5049C120.816 13.5049 121.353 13.6034 121.836 13.8003C122.337 13.9972 122.776 14.2836 123.152 14.6595C123.545 15.0353 123.886 15.4918 124.172 16.0288C124.476 15.5634 124.816 15.1427 125.192 14.7668C125.568 14.3731 126.007 14.0688 126.508 13.854C127.009 13.6213 127.573 13.5049 128.199 13.5049C129.238 13.5049 130.106 13.7645 130.804 14.2836C131.52 14.8026 132.057 15.5455 132.415 16.5121C132.791 17.4607 132.979 18.5974 132.979 19.9219V25.1307C132.979 25.435 132.943 25.7124 132.871 25.963C132.817 26.1957 132.674 26.3837 132.442 26.5268C132.227 26.67 131.869 26.7416 131.368 26.7416C130.866 26.7416 130.499 26.6611 130.267 26.5C130.034 26.3568 129.891 26.1689 129.837 25.9362C129.783 25.6856 129.757 25.4081 129.757 25.1038V19.8951C129.757 19.2328 129.676 18.66 129.515 18.1767C129.354 17.6934 129.112 17.3175 128.79 17.049C128.486 16.7805 128.083 16.6463 127.582 16.6463C127.045 16.6463 126.579 16.7805 126.186 17.049C125.81 17.2996 125.514 17.6666 125.3 18.1499C125.085 18.6331 124.977 19.2238 124.977 19.9219V25.1575C124.977 25.4618 124.933 25.7482 124.843 26.0167C124.754 26.2673 124.575 26.4553 124.306 26.5805C124.056 26.7237 123.689 26.7774 123.205 26.7416C122.758 26.7237 122.427 26.6342 122.212 26.4732C122.015 26.3121 121.89 26.1152 121.836 25.8825C121.8 25.6319 121.782 25.3723 121.782 25.1038V19.8951C121.782 19.2328 121.702 18.66 121.541 18.1767C121.38 17.6755 121.138 17.2996 120.816 17.049C120.511 16.7805 120.1 16.6463 119.581 16.6463C119.026 16.6463 118.551 16.7895 118.158 17.0759C117.782 17.3623 117.495 17.7471 117.299 18.2304C117.102 18.7137 117.003 19.2686 117.003 19.8951V25.1575C117.003 25.4439 116.967 25.7124 116.896 25.963C116.842 26.2136 116.699 26.4016 116.466 26.5268C116.251 26.67 115.884 26.7416 115.365 26.7416ZM142.066 26.9296C140.902 26.9296 139.882 26.7416 139.005 26.3658C138.146 25.9899 137.421 25.4797 136.83 24.8353C136.257 24.1731 135.819 23.4392 135.515 22.6337C135.228 21.8103 135.085 20.9601 135.085 20.083C135.085 18.7942 135.38 17.6487 135.971 16.6463C136.562 15.6439 137.376 14.8563 138.414 14.2836C139.47 13.7108 140.679 13.4244 142.039 13.4244C143.005 13.4244 143.856 13.5765 144.59 13.8808C145.323 14.1851 145.932 14.5879 146.415 15.089C146.917 15.5723 147.292 16.1093 147.543 16.7C147.812 17.2907 147.946 17.8635 147.946 18.4184C147.946 19.367 147.713 20.0562 147.248 20.4858C146.8 20.9153 146.236 21.1301 145.556 21.1301H138.468C138.486 21.7387 138.674 22.2668 139.032 22.7142C139.408 23.1617 139.873 23.5108 140.428 23.7614C141.001 23.9941 141.582 24.1104 142.173 24.1104C142.621 24.1104 143.014 24.0836 143.355 24.0299C143.713 23.9762 144.017 23.9135 144.267 23.8419C144.518 23.7524 144.733 23.6629 144.912 23.5734C145.109 23.4839 145.288 23.4034 145.449 23.3318C145.61 23.2602 145.762 23.2154 145.905 23.1975C146.102 23.1796 146.299 23.2244 146.496 23.3318C146.693 23.4392 146.854 23.6271 146.979 23.8956C147.087 24.0746 147.158 24.2447 147.194 24.4058C147.248 24.5489 147.275 24.6921 147.275 24.8353C147.275 25.1933 147.06 25.5334 146.63 25.8556C146.201 26.1599 145.592 26.4105 144.804 26.6074C144.035 26.8222 143.122 26.9296 142.066 26.9296ZM138.468 19.2238H143.972C144.276 19.2238 144.509 19.1791 144.67 19.0896C144.831 18.9822 144.912 18.7674 144.912 18.4452C144.912 18.0335 144.786 17.6666 144.536 17.3444C144.285 17.0043 143.945 16.7447 143.516 16.5658C143.086 16.3689 142.585 16.2704 142.012 16.2704C141.35 16.2704 140.75 16.4047 140.213 16.6731C139.676 16.9237 139.247 17.2728 138.924 17.7203C138.62 18.1678 138.468 18.6689 138.468 19.2238Z" fill="black"/>
<path d="M151.626 26.7685C150.964 26.7685 150.498 26.6432 150.23 26.3926C149.961 26.1241 149.827 25.6587 149.827 24.9964C149.827 24.531 149.881 24.1731 149.988 23.9225C150.113 23.654 150.31 23.4571 150.579 23.3318C150.847 23.2065 151.205 23.1438 151.653 23.1438C152.315 23.1438 152.78 23.2781 153.049 23.5466C153.317 23.8151 153.452 24.2894 153.452 24.9696C153.452 25.4171 153.389 25.7751 153.264 26.0436C153.156 26.3121 152.968 26.5 152.7 26.6074C152.449 26.7148 152.091 26.7685 151.626 26.7685Z" fill="#3C91E6"/>
</svg>
