<svg width="80" height="30" viewBox="0 0 80 30" fill="none" xmlns="http://www.w3.org/2000/svg">
<path d="M6.88971 8.21805C7.15971 8.71305 7.46721 9.32805 7.81221 10.063C8.17221 10.783 8.53971 11.5705 8.91471 12.4255C9.30471 13.2655 9.68721 14.128 10.0622 15.013C10.4372 15.898 10.7897 16.7305 11.1197 17.5105C11.4497 16.7305 11.8022 15.898 12.1772 15.013C12.5522 14.128 12.9272 13.2655 13.3022 12.4255C13.6922 11.5705 14.0597 10.783 14.4047 10.063C14.7647 9.32805 15.0797 8.71305 15.3497 8.21805H18.5447C18.6947 9.25305 18.8297 10.4155 18.9497 11.7055C19.0847 12.9805 19.1972 14.3155 19.2872 15.7105C19.3922 17.0905 19.4822 18.478 19.5572 19.873C19.6472 21.268 19.7222 22.5805 19.7822 23.8105H16.3622C16.3172 22.2955 16.2572 20.6455 16.1822 18.8605C16.1072 17.0755 15.9947 15.2755 15.8447 13.4605C15.5747 14.0905 15.2747 14.788 14.9447 15.553C14.6147 16.318 14.2847 17.083 13.9547 17.848C13.6397 18.613 13.3322 19.348 13.0322 20.053C12.7322 20.743 12.4772 21.3355 12.2672 21.8305H9.81471C9.60471 21.3355 9.34971 20.743 9.04971 20.053C8.74971 19.348 8.43471 18.613 8.10471 17.848C7.78971 17.083 7.46721 16.318 7.13721 15.553C6.80721 14.788 6.50721 14.0905 6.23721 13.4605C6.08721 15.2755 5.97471 17.0755 5.89971 18.8605C5.82471 20.6455 5.76471 22.2955 5.71971 23.8105H2.29971C2.35971 22.5805 2.42721 21.268 2.50221 19.873C2.59221 18.478 2.68221 17.0905 2.77221 15.7105C2.87721 14.3155 2.98971 12.9805 3.10971 11.7055C3.24471 10.4155 3.38721 9.25305 3.53721 8.21805H6.88971ZM27.2401 21.4705C27.5701 21.4705 27.8851 21.463 28.1851 21.448C28.4851 21.433 28.7251 21.4105 28.9051 21.3805V18.838C28.7701 18.808 28.5676 18.778 28.2976 18.748C28.0276 18.718 27.7801 18.703 27.5551 18.703C27.2401 18.703 26.9401 18.7255 26.6551 18.7705C26.3851 18.8005 26.1451 18.868 25.9351 18.973C25.7251 19.078 25.5601 19.2205 25.4401 19.4005C25.3201 19.5805 25.2601 19.8055 25.2601 20.0755C25.2601 20.6005 25.4326 20.968 25.7776 21.178C26.1376 21.373 26.6251 21.4705 27.2401 21.4705ZM26.9701 11.6605C27.9601 11.6605 28.7851 11.773 29.4451 11.998C30.1051 12.223 30.6301 12.5455 31.0201 12.9655C31.4251 13.3855 31.7101 13.8955 31.8751 14.4955C32.0401 15.0955 32.1226 15.763 32.1226 16.498V23.473C31.6426 23.578 30.9751 23.698 30.1201 23.833C29.2651 23.983 28.2301 24.058 27.0151 24.058C26.2501 24.058 25.5526 23.9905 24.9226 23.8555C24.3076 23.7205 23.7751 23.503 23.3251 23.203C22.8751 22.888 22.5301 22.483 22.2901 21.988C22.0501 21.493 21.9301 20.8855 21.9301 20.1655C21.9301 19.4755 22.0651 18.8905 22.3351 18.4105C22.6201 17.9305 22.9951 17.548 23.4601 17.263C23.9251 16.978 24.4576 16.7755 25.0576 16.6555C25.6576 16.5205 26.2801 16.453 26.9251 16.453C27.3601 16.453 27.7426 16.4755 28.0726 16.5205C28.4176 16.5505 28.6951 16.5955 28.9051 16.6555V16.3405C28.9051 15.7705 28.7326 15.313 28.3876 14.968C28.0426 14.623 27.4426 14.4505 26.5876 14.4505C26.0176 14.4505 25.4551 14.4955 24.9001 14.5855C24.3451 14.6605 23.8651 14.773 23.4601 14.923L23.0326 12.223C23.2276 12.163 23.4676 12.103 23.7526 12.043C24.0526 11.968 24.3751 11.908 24.7201 11.863C25.0651 11.803 25.4251 11.758 25.8001 11.728C26.1901 11.683 26.5801 11.6605 26.9701 11.6605ZM35.0416 9.02805L38.3941 8.48805V11.9755H42.4216V14.7655H38.3941V18.928C38.3941 19.633 38.5141 20.1955 38.7541 20.6155C39.0091 21.0355 39.5116 21.2455 40.2616 21.2455C40.6216 21.2455 40.9891 21.2155 41.3641 21.1555C41.7541 21.0805 42.1066 20.983 42.4216 20.863L42.8941 23.473C42.4891 23.638 42.0391 23.7805 41.5441 23.9005C41.0491 24.0205 40.4416 24.0805 39.7216 24.0805C38.8066 24.0805 38.0491 23.9605 37.4491 23.7205C36.8491 23.4655 36.3691 23.1205 36.0091 22.6855C35.6491 22.2355 35.3941 21.6955 35.2441 21.0655C35.1091 20.4355 35.0416 19.738 35.0416 18.973V9.02805ZM49.2347 21.4705C49.5647 21.4705 49.8797 21.463 50.1797 21.448C50.4797 21.433 50.7197 21.4105 50.8997 21.3805V18.838C50.7647 18.808 50.5622 18.778 50.2922 18.748C50.0222 18.718 49.7747 18.703 49.5497 18.703C49.2347 18.703 48.9347 18.7255 48.6497 18.7705C48.3797 18.8005 48.1397 18.868 47.9297 18.973C47.7197 19.078 47.5547 19.2205 47.4347 19.4005C47.3147 19.5805 47.2547 19.8055 47.2547 20.0755C47.2547 20.6005 47.4272 20.968 47.7722 21.178C48.1322 21.373 48.6197 21.4705 49.2347 21.4705ZM48.9647 11.6605C49.9547 11.6605 50.7797 11.773 51.4397 11.998C52.0997 12.223 52.6247 12.5455 53.0147 12.9655C53.4197 13.3855 53.7047 13.8955 53.8697 14.4955C54.0347 15.0955 54.1172 15.763 54.1172 16.498V23.473C53.6372 23.578 52.9697 23.698 52.1147 23.833C51.2597 23.983 50.2247 24.058 49.0097 24.058C48.2447 24.058 47.5472 23.9905 46.9172 23.8555C46.3022 23.7205 45.7697 23.503 45.3197 23.203C44.8697 22.888 44.5247 22.483 44.2847 21.988C44.0447 21.493 43.9247 20.8855 43.9247 20.1655C43.9247 19.4755 44.0597 18.8905 44.3297 18.4105C44.6147 17.9305 44.9897 17.548 45.4547 17.263C45.9197 16.978 46.4522 16.7755 47.0522 16.6555C47.6522 16.5205 48.2747 16.453 48.9197 16.453C49.3547 16.453 49.7372 16.4755 50.0672 16.5205C50.4122 16.5505 50.6897 16.5955 50.8997 16.6555V16.3405C50.8997 15.7705 50.7272 15.313 50.3822 14.968C50.0372 14.623 49.4372 14.4505 48.5822 14.4505C48.0122 14.4505 47.4497 14.4955 46.8947 14.5855C46.3397 14.6605 45.8597 14.773 45.4547 14.923L45.0272 12.223C45.2222 12.163 45.4622 12.103 45.7472 12.043C46.0472 11.968 46.3697 11.908 46.7147 11.863C47.0597 11.803 47.4197 11.758 47.7947 11.728C48.1847 11.683 48.5747 11.6605 48.9647 11.6605Z" fill="white"/>
<path d="M70.6997 25.5605V15.8529L63.1997 9.06055V25.5605H70.6997Z" fill="white"/>
<path d="M79.6632 25.3252V15.756L72.4209 9.06055V25.3252H79.6632Z" fill="white"/>
</svg>
