<svg width="40" height="41" viewBox="0 0 40 41" fill="none" xmlns="http://www.w3.org/2000/svg">
<path d="M31.9501 11.6756C31.2334 8.05892 28.5501 6.47559 24.8168 6.47559H10.1834C5.78343 6.47559 2.8501 8.67559 2.8501 13.8089V22.3923C2.8501 26.0923 4.36676 28.2589 6.86676 29.1923C7.23343 29.3256 7.63343 29.4423 8.0501 29.5089C8.71676 29.6589 9.43343 29.7256 10.1834 29.7256H24.8334C29.2334 29.7256 32.1668 27.5256 32.1668 22.3923V13.8089C32.1668 13.0256 32.1001 12.3256 31.9501 11.6756ZM9.21676 20.6089C9.21676 21.2923 8.6501 21.8589 7.96676 21.8589C7.28343 21.8589 6.71676 21.2923 6.71676 20.6089V15.6089C6.71676 14.9256 7.28343 14.3589 7.96676 14.3589C8.6501 14.3589 9.21676 14.9256 9.21676 15.6089V20.6089ZM17.5001 22.5089C15.0668 22.5089 13.1001 20.5423 13.1001 18.1089C13.1001 15.6756 15.0668 13.7089 17.5001 13.7089C19.9334 13.7089 21.9001 15.6756 21.9001 18.1089C21.9001 20.5423 19.9334 22.5089 17.5001 22.5089ZM28.2668 20.6089C28.2668 21.2923 27.7001 21.8589 27.0168 21.8589C26.3334 21.8589 25.7668 21.2923 25.7668 20.6089V15.6089C25.7668 14.9256 26.3334 14.3589 27.0168 14.3589C27.7001 14.3589 28.2668 14.9256 28.2668 15.6089V20.6089Z" fill="#3C91E6"/>
<path d="M37.1663 18.8095V27.3928C37.1663 32.5262 34.2329 34.7428 29.8163 34.7428H15.1829C13.9329 34.7428 12.8163 34.5595 11.8496 34.1928C11.0663 33.9095 10.3829 33.4928 9.83295 32.9595C9.53295 32.6762 9.76628 32.2262 10.1829 32.2262H24.8163C30.9829 32.2262 34.6496 28.5595 34.6496 22.4095V13.8095C34.6496 13.4095 35.0996 13.1595 35.3829 13.4595C36.5163 14.6595 37.1663 16.4095 37.1663 18.8095Z" fill="#3C91E6"/>
</svg>
