<svg width="107" height="107" viewBox="0 0 107 107" fill="none" xmlns="http://www.w3.org/2000/svg">
<rect width="107" height="107" fill="#F8F8F8"/>
<circle cx="55.5057" cy="54.1688" r="33.533" fill="#F1F3FF"/>
<circle cx="24.0744" cy="31.5266" r="2.10179" fill="#F1F3FF"/>
<circle cx="78.4345" cy="23.2148" r="3.91696" fill="#F1F3FF"/>
<circle cx="24.7435" cy="75.7591" r="3.72589" fill="#F1F3FF"/>
<circle cx="91.4271" cy="72.1292" r="3.72589" fill="#F1F3FF"/>
<circle cx="84.1667" cy="76.3328" r="1.81518" fill="#F1F3FF"/>
<path d="M60.8595 22.0751C60.7487 22.0515 60.7487 21.8934 60.8595 21.8699L62.5343 21.5137C62.5747 21.5051 62.6063 21.4736 62.615 21.4333L62.9757 19.7702C62.9996 19.66 63.1568 19.66 63.1807 19.7702L63.5413 21.4333C63.5501 21.4736 63.5817 21.5051 63.622 21.5137L65.2969 21.8699C65.4077 21.8934 65.4077 22.0515 65.2969 22.0751L63.622 22.4312C63.5817 22.4398 63.5501 22.4713 63.5413 22.5116L63.1807 24.1747C63.1568 24.2849 62.9996 24.2849 62.9757 24.1747L62.615 22.5116C62.6063 22.4713 62.5747 22.4398 62.5343 22.4312L60.8595 22.0751Z" fill="#C4CBF5"/>
<path d="M15.3275 59.1595C15.3703 58.9575 15.6586 58.9575 15.7014 59.1595L16.3401 62.177C16.3557 62.2505 16.4129 62.3081 16.4864 62.3241L19.4727 62.9747C19.6732 63.0184 19.6732 63.3044 19.4727 63.3481L16.4864 63.9987C16.4129 64.0147 16.3557 64.0722 16.3401 64.1458L15.7014 67.1633C15.6586 67.3653 15.3703 67.3653 15.3275 67.1633L14.6888 64.1458C14.6732 64.0722 14.616 64.0147 14.5426 63.9987L11.5562 63.3481C11.3557 63.3044 11.3557 63.0184 11.5562 62.9747L14.5425 62.3241C14.616 62.3081 14.6732 62.2505 14.6888 62.177L15.3275 59.1595Z" fill="#C4CBF5"/>
<path d="M85.4746 32.4095C85.5173 32.2075 85.8057 32.2075 85.8484 32.4095L86.221 34.1698C86.2366 34.2434 86.2938 34.301 86.3673 34.317L88.1144 34.6976C88.315 34.7413 88.315 35.0273 88.1144 35.071L86.3673 35.4516C86.2938 35.4676 86.2366 35.5252 86.221 35.5987L85.8484 37.3591C85.8057 37.5611 85.5173 37.5611 85.4746 37.3591L85.102 35.5987C85.0864 35.5252 85.0291 35.4676 84.9557 35.4516L83.2085 35.071C83.008 35.0273 83.008 34.7413 83.2085 34.6976L84.9557 34.317C85.0291 34.301 85.0864 34.2434 85.102 34.1698L85.4746 32.4095Z" fill="#C4CBF5"/>
<path d="M93.1771 60.6328L93.7622 63.3971L96.4871 63.9907L93.7622 64.5843L93.1771 67.3486L92.592 64.5843L89.8672 63.9907L92.592 63.3971L93.1771 60.6328Z" fill="white"/>
<rect x="54.8072" y="34.945" width="34.4327" height="37.0694" rx="2.00472" transform="rotate(10 54.8072 34.945)" fill="white" stroke="#C4CBF5" stroke-width="0.764286"/>
<rect x="56.4517" y="37.2946" width="30.1734" height="26.3198" rx="2.00472" transform="rotate(10 56.4517 37.2946)" fill="#F1F3FF" stroke="#F1F3FF" stroke-width="0.764286"/>
<rect x="21.53" y="40.9244" width="34.4327" height="37.0694" rx="2.00472" transform="rotate(-10 21.53 40.9244)" fill="white" stroke="#C4CBF5" stroke-width="0.764286"/>
<rect x="23.8796" y="42.5699" width="30.1734" height="26.3198" rx="2.00472" transform="rotate(-10 23.8796 42.5699)" fill="#F1F3FF" stroke="#F1F3FF" stroke-width="0.764286"/>
<rect x="35.655" y="31.9089" width="41.0677" height="44.224" rx="2.32448" fill="white" stroke="#C4CBF5" stroke-width="0.764286"/>
<rect x="38.0827" y="34.3366" width="35.9691" height="31.3561" rx="2.32448" fill="url(#paint0_linear_2522_2510)" stroke="#C4CBF5" stroke-width="0.764286"/>
<circle cx="60.6846" cy="41.8399" r="2.83891" fill="white"/>
<path d="M64.2837 47.6357C64.471 47.3408 64.9014 47.3408 65.0887 47.6357L71.2615 57.3553C71.4631 57.6728 71.2351 58.0878 70.859 58.0878H58.5135C58.1374 58.0878 57.9094 57.6728 58.111 57.3553L64.2837 47.6357Z" fill="#C4CBF5"/>
<path d="M50.3297 41.4168C50.3653 41.3562 50.4524 41.3549 50.4898 41.4144L60.6865 57.6298C60.7257 57.6922 60.6809 57.7734 60.6072 57.7734H40.8711C40.7986 57.7734 40.7536 57.6947 40.7903 57.6322L50.3297 41.4168Z" fill="#DDE2FF" stroke="#DDE2FF" stroke-width="0.764286"/>
<path d="M50.2135 40.5844C50.2894 40.4522 50.4792 40.4495 50.5589 40.5794L53.2911 45.0328C53.4051 45.2184 53.1833 45.4272 53.0048 45.3023L52.1766 44.7225C52.1054 44.6727 52.0104 44.6743 51.9409 44.7264L50.7603 45.6119C50.702 45.6555 50.6247 45.6643 50.5582 45.6347L49.1831 45.0236C49.1307 45.0003 49.0707 45.0005 49.0185 45.0243L47.7552 45.5985C47.5776 45.6792 47.4008 45.4849 47.4979 45.3157L50.2135 40.5844Z" fill="white"/>
<path d="M64.8935 46.9609C64.8372 46.8628 64.6964 46.8607 64.6373 46.9571L62.6101 50.2613C62.5256 50.3991 62.6901 50.554 62.8225 50.4613L63.4298 50.0362C63.486 49.9968 63.5618 50.0009 63.6134 50.0461L64.479 50.8035C64.5263 50.8449 64.5945 50.8521 64.6495 50.8216L65.6536 50.2638C65.6949 50.2408 65.7446 50.2388 65.7876 50.2584L66.7175 50.681C66.8492 50.7409 66.9804 50.5967 66.9083 50.4712L64.8935 46.9609Z" fill="white"/>
<path d="M43.9102 59.9053H53.3302" stroke="#DDE2FF" stroke-width="0.764286" stroke-linecap="round"/>
<path d="M38.7871 58.0859H73.7532" stroke="#C4CBF5" stroke-width="0.764286" stroke-linecap="square"/>
<path d="M50.748 61.3896H56.8144" stroke="#DDE2FF" stroke-width="0.764286" stroke-linecap="round"/>
<path d="M46.2324 61.4541H49.8456" stroke="#DDE2FF" stroke-width="0.764286" stroke-linecap="round"/>
<path d="M62.75 60.0352H65.7179" stroke="#DDE2FF" stroke-width="0.764286" stroke-linecap="round"/>
<defs>
<linearGradient id="paint0_linear_2522_2510" x1="40.8878" y1="34.7747" x2="68.9753" y2="65.3462" gradientUnits="userSpaceOnUse">
<stop stop-color="#DDE2FF"/>
<stop offset="1" stop-color="#F1F3FF" stop-opacity="0"/>
</linearGradient>
</defs>
</svg>
