<svg width="111" height="27" viewBox="0 0 111 27" fill="none" xmlns="http://www.w3.org/2000/svg">
<path d="M41.9222 20.3105H38.4595L32.668 11.5423V20.3105H29.2052V6.09505H32.668L38.4595 14.9038V6.09505H41.9222V20.3105ZM49.5758 20.4725C48.4688 20.4725 47.4698 20.2363 46.5788 19.7638C45.7013 19.2913 45.006 18.6163 44.493 17.7388C43.9935 16.8613 43.7438 15.8353 43.7438 14.6608C43.7438 13.4998 44.0003 12.4805 44.5133 11.603C45.0263 10.712 45.7283 10.0303 46.6193 9.5578C47.5103 9.0853 48.5093 8.84905 49.6163 8.84905C50.7233 8.84905 51.7223 9.0853 52.6133 9.5578C53.5043 10.0303 54.2063 10.712 54.7193 11.603C55.2323 12.4805 55.4888 13.4998 55.4888 14.6608C55.4888 15.8218 55.2255 16.8478 54.699 17.7388C54.186 18.6163 53.4773 19.2913 52.5728 19.7638C51.6818 20.2363 50.6828 20.4725 49.5758 20.4725ZM49.5758 17.4755C50.2373 17.4755 50.7975 17.2325 51.2565 16.7465C51.729 16.2605 51.9653 15.5653 51.9653 14.6608C51.9653 13.7563 51.7358 13.061 51.2768 12.575C50.8313 12.089 50.2778 11.846 49.6163 11.846C48.9413 11.846 48.381 12.089 47.9355 12.575C47.49 13.0475 47.2673 13.7428 47.2673 14.6608C47.2673 15.5653 47.4833 16.2605 47.9153 16.7465C48.3608 17.2325 48.9143 17.4755 49.5758 17.4755ZM56.6171 8.7478V5.52805H62.2263V20.3105H58.6218V8.7478H56.6171ZM68.6433 13.1825C68.6433 11.7785 68.9471 10.5298 69.5546 9.4363C70.1621 8.3293 71.0058 7.47205 72.0858 6.86455C73.1793 6.24355 74.4146 5.93305 75.7916 5.93305C77.4791 5.93305 78.9236 6.37855 80.1251 7.26955C81.3266 8.16055 82.1298 9.37555 82.5348 10.9145H78.7278C78.4443 10.3205 78.0393 9.8683 77.5128 9.5578C76.9998 9.2473 76.4126 9.09205 75.7511 9.09205C74.6846 9.09205 73.8206 9.4633 73.1591 10.2058C72.4976 10.9483 72.1668 11.9405 72.1668 13.1825C72.1668 14.4245 72.4976 15.4168 73.1591 16.1593C73.8206 16.9018 74.6846 17.273 75.7511 17.273C76.4126 17.273 76.9998 17.1178 77.5128 16.8073C78.0393 16.4968 78.4443 16.0445 78.7278 15.4505H82.5348C82.1298 16.9895 81.3266 18.2045 80.1251 19.0955C78.9236 19.973 77.4791 20.4118 75.7916 20.4118C74.4146 20.4118 73.1793 20.108 72.0858 19.5005C71.0058 18.8795 70.1621 18.0223 69.5546 16.9288C68.9471 15.8353 68.6433 14.5865 68.6433 13.1825ZM86.3969 7.83655C85.7894 7.83655 85.2899 7.66105 84.8984 7.31005C84.5204 6.94555 84.3314 6.50005 84.3314 5.97355C84.3314 5.43355 84.5204 4.98805 84.8984 4.63705C85.2899 4.27255 85.7894 4.0903 86.3969 4.0903C86.9909 4.0903 87.4769 4.27255 87.8549 4.63705C88.2464 4.98805 88.4422 5.43355 88.4422 5.97355C88.4422 6.50005 88.2464 6.94555 87.8549 7.31005C87.4769 7.66105 86.9909 7.83655 86.3969 7.83655ZM88.1182 9.01105V20.3105H84.6554V9.01105H88.1182ZM96.9253 17.3743V20.3105H95.1636C93.9081 20.3105 92.9293 20.0068 92.2273 19.3993C91.5253 18.7783 91.1743 17.7725 91.1743 16.382V11.8865H89.7973V9.01105H91.1743V6.25705H94.6371V9.01105H96.9051V11.8865H94.6371V16.4225C94.6371 16.76 94.7181 17.003 94.8801 17.1515C95.0421 17.3 95.3121 17.3743 95.6901 17.3743H96.9253ZM110.397 9.01105L103.309 25.6768H99.5831L102.175 19.9258L97.5784 9.01105H101.446L104.058 16.0783L106.65 9.01105H110.397Z" fill="white"/>
<rect x="0.949707" y="2.56055" width="6.75" height="6.75" fill="white"/>
<rect x="0.949707" y="9.31055" width="6.75" height="7.5" fill="white"/>
<rect x="0.949707" y="16.8105" width="6.75" height="6.75" fill="white"/>
<rect x="7.69922" y="2.56055" width="7.5" height="6.75" fill="white"/>
<rect x="7.69922" y="16.8105" width="7.5" height="6.75" fill="white"/>
<rect x="15.1992" y="2.56055" width="6.75" height="6.75" fill="white"/>
<rect x="15.1992" y="9.31055" width="6.75" height="7.5" fill="white"/>
<rect x="15.1992" y="16.8105" width="6.75" height="6.75" fill="white"/>
<rect x="4.69971" y="6.31055" width="13.5" height="13.5" fill="black"/>
</svg>
