<svg width="85" height="18" viewBox="0 0 85 18" fill="none" xmlns="http://www.w3.org/2000/svg">
<path d="M5.42971 1.03805C7.75471 1.03805 9.53971 1.45055 10.7847 2.27555C12.0297 3.08555 12.6522 4.42055 12.6522 6.28055C12.6522 8.15555 12.0222 9.51305 10.7622 10.353C9.50221 11.178 7.70221 11.5905 5.36221 11.5905H4.25971V16.8105H0.749707V1.44305C1.51471 1.29305 2.32471 1.18805 3.17971 1.12805C4.03471 1.06805 4.78471 1.03805 5.42971 1.03805ZM5.65471 4.03055C5.39971 4.03055 5.14471 4.03805 4.88971 4.05305C4.64971 4.06805 4.43971 4.08305 4.25971 4.09805V8.59805H5.36221C6.57721 8.59805 7.49221 8.43305 8.10721 8.10305C8.72221 7.77305 9.02971 7.15805 9.02971 6.25805C9.02971 5.82305 8.94721 5.46305 8.78221 5.17805C8.63221 4.89305 8.40721 4.66805 8.10721 4.50305C7.82221 4.32305 7.46971 4.20305 7.04971 4.14305C6.62971 4.06805 6.16471 4.03055 5.65471 4.03055ZM22.1372 7.94555C21.8372 7.87055 21.4847 7.79555 21.0797 7.72055C20.6747 7.63055 20.2397 7.58555 19.7747 7.58555C19.5647 7.58555 19.3097 7.60805 19.0097 7.65305C18.7247 7.68305 18.5072 7.72055 18.3572 7.76555V16.8105H15.0047V5.60555C15.6047 5.39555 16.3097 5.20055 17.1197 5.02055C17.9447 4.82555 18.8597 4.72805 19.8647 4.72805C20.0447 4.72805 20.2622 4.74305 20.5172 4.77305C20.7722 4.78805 21.0272 4.81805 21.2822 4.86305C21.5372 4.89305 21.7922 4.93805 22.0472 4.99805C22.3022 5.04305 22.5197 5.10305 22.6997 5.17805L22.1372 7.94555ZM35.3471 10.8705C35.3471 11.8005 35.2121 12.6555 34.9421 13.4355C34.6721 14.2005 34.2821 14.8605 33.7721 15.4155C33.2621 15.9555 32.6471 16.3755 31.9271 16.6755C31.2221 16.9755 30.4271 17.1255 29.5421 17.1255C28.6721 17.1255 27.8771 16.9755 27.1571 16.6755C26.4521 16.3755 25.8446 15.9555 25.3346 15.4155C24.8246 14.8605 24.4271 14.2005 24.1421 13.4355C23.8571 12.6555 23.7146 11.8005 23.7146 10.8705C23.7146 9.94055 23.8571 9.09305 24.1421 8.32805C24.4421 7.56305 24.8471 6.91055 25.3571 6.37055C25.8821 5.83055 26.4971 5.41055 27.2021 5.11055C27.9221 4.81055 28.7021 4.66055 29.5421 4.66055C30.3971 4.66055 31.1771 4.81055 31.8821 5.11055C32.6021 5.41055 33.2171 5.83055 33.7271 6.37055C34.2371 6.91055 34.6346 7.56305 34.9196 8.32805C35.2046 9.09305 35.3471 9.94055 35.3471 10.8705ZM31.9271 10.8705C31.9271 9.83555 31.7171 9.02555 31.2971 8.44055C30.8921 7.84055 30.3071 7.54055 29.5421 7.54055C28.7771 7.54055 28.1846 7.84055 27.7646 8.44055C27.3446 9.02555 27.1346 9.83555 27.1346 10.8705C27.1346 11.9055 27.3446 12.7305 27.7646 13.3455C28.1846 13.9455 28.7771 14.2455 29.5421 14.2455C30.3071 14.2455 30.8921 13.9455 31.2971 13.3455C31.7171 12.7305 31.9271 11.9055 31.9271 10.8705ZM42.4216 14.133C42.9166 14.133 43.3216 14.0955 43.6366 14.0205C43.9666 13.9305 44.2291 13.818 44.4241 13.683C44.6191 13.533 44.7541 13.3605 44.8291 13.1655C44.9041 12.9705 44.9416 12.753 44.9416 12.513C44.9416 12.003 44.7016 11.583 44.2216 11.253C43.7416 10.908 42.9166 10.5405 41.7466 10.1505C41.2366 9.97055 40.7266 9.76805 40.2166 9.54305C39.7066 9.30305 39.2491 9.01055 38.8441 8.66555C38.4391 8.30555 38.1091 7.87805 37.8541 7.38305C37.5991 6.87305 37.4716 6.25805 37.4716 5.53805C37.4716 4.81805 37.6066 4.17305 37.8766 3.60305C38.1466 3.01805 38.5291 2.52305 39.0241 2.11805C39.5191 1.71305 40.1191 1.40555 40.8241 1.19555C41.5291 0.970546 42.3241 0.858046 43.2091 0.858046C44.2591 0.858046 45.1666 0.970546 45.9316 1.19555C46.6966 1.42055 47.3266 1.66805 47.8216 1.93805L46.8091 4.70555C46.3741 4.48055 45.8866 4.28555 45.3466 4.12055C44.8216 3.94055 44.1841 3.85055 43.4341 3.85055C42.5941 3.85055 41.9866 3.97055 41.6116 4.21055C41.2516 4.43555 41.0716 4.78805 41.0716 5.26805C41.0716 5.55305 41.1391 5.79305 41.2741 5.98805C41.4091 6.18305 41.5966 6.36305 41.8366 6.52805C42.0916 6.67805 42.3766 6.82055 42.6916 6.95555C43.0216 7.07555 43.3816 7.20305 43.7716 7.33805C44.5816 7.63805 45.2866 7.93805 45.8866 8.23805C46.4866 8.52305 46.9816 8.86055 47.3716 9.25055C47.7766 9.64055 48.0766 10.098 48.2716 10.623C48.4666 11.148 48.5641 11.7855 48.5641 12.5355C48.5641 13.9905 48.0541 15.123 47.0341 15.933C46.0141 16.728 44.4766 17.1255 42.4216 17.1255C41.7316 17.1255 41.1091 17.0805 40.5541 16.9905C39.9991 16.9155 39.5041 16.818 39.0691 16.698C38.6491 16.578 38.2816 16.4505 37.9666 16.3155C37.6666 16.1805 37.4116 16.053 37.2016 15.933L38.1916 13.143C38.6566 13.398 39.2266 13.6305 39.9016 13.8405C40.5916 14.0355 41.4316 14.133 42.4216 14.133ZM55.826 14.4705C56.156 14.4705 56.471 14.463 56.771 14.448C57.071 14.433 57.311 14.4105 57.491 14.3805V11.838C57.356 11.808 57.1535 11.778 56.8835 11.748C56.6135 11.718 56.366 11.703 56.141 11.703C55.826 11.703 55.526 11.7255 55.241 11.7705C54.971 11.8005 54.731 11.868 54.521 11.973C54.311 12.078 54.146 12.2205 54.026 12.4005C53.906 12.5805 53.846 12.8055 53.846 13.0755C53.846 13.6005 54.0185 13.968 54.3635 14.178C54.7235 14.373 55.211 14.4705 55.826 14.4705ZM55.556 4.66055C56.546 4.66055 57.371 4.77305 58.031 4.99805C58.691 5.22305 59.216 5.54555 59.606 5.96555C60.011 6.38555 60.296 6.89555 60.461 7.49555C60.626 8.09555 60.7085 8.76305 60.7085 9.49805V16.473C60.2285 16.578 59.561 16.698 58.706 16.833C57.851 16.983 56.816 17.058 55.601 17.058C54.836 17.058 54.1385 16.9905 53.5085 16.8555C52.8935 16.7205 52.361 16.503 51.911 16.203C51.461 15.888 51.116 15.483 50.876 14.988C50.636 14.493 50.516 13.8855 50.516 13.1655C50.516 12.4755 50.651 11.8905 50.921 11.4105C51.206 10.9305 51.581 10.548 52.046 10.263C52.511 9.97805 53.0435 9.77555 53.6435 9.65555C54.2435 9.52055 54.866 9.45305 55.511 9.45305C55.946 9.45305 56.3285 9.47555 56.6585 9.52055C57.0035 9.55055 57.281 9.59555 57.491 9.65555V9.34055C57.491 8.77055 57.3185 8.31305 56.9735 7.96805C56.6285 7.62305 56.0285 7.45055 55.1735 7.45055C54.6035 7.45055 54.041 7.49555 53.486 7.58555C52.931 7.66055 52.451 7.77305 52.046 7.92305L51.6185 5.22305C51.8135 5.16305 52.0535 5.10305 52.3385 5.04305C52.6385 4.96805 52.961 4.90805 53.306 4.86305C53.651 4.80305 54.011 4.75805 54.386 4.72805C54.776 4.68305 55.166 4.66055 55.556 4.66055ZM68.2625 14.4705C68.5925 14.4705 68.9075 14.463 69.2075 14.448C69.5075 14.433 69.7475 14.4105 69.9275 14.3805V11.838C69.7925 11.808 69.59 11.778 69.32 11.748C69.05 11.718 68.8025 11.703 68.5775 11.703C68.2625 11.703 67.9625 11.7255 67.6775 11.7705C67.4075 11.8005 67.1675 11.868 66.9575 11.973C66.7475 12.078 66.5825 12.2205 66.4625 12.4005C66.3425 12.5805 66.2825 12.8055 66.2825 13.0755C66.2825 13.6005 66.455 13.968 66.8 14.178C67.16 14.373 67.6475 14.4705 68.2625 14.4705ZM67.9925 4.66055C68.9825 4.66055 69.8075 4.77305 70.4675 4.99805C71.1275 5.22305 71.6525 5.54555 72.0425 5.96555C72.4475 6.38555 72.7325 6.89555 72.8975 7.49555C73.0625 8.09555 73.145 8.76305 73.145 9.49805V16.473C72.665 16.578 71.9975 16.698 71.1425 16.833C70.2875 16.983 69.2525 17.058 68.0375 17.058C67.2725 17.058 66.575 16.9905 65.945 16.8555C65.33 16.7205 64.7975 16.503 64.3475 16.203C63.8975 15.888 63.5525 15.483 63.3125 14.988C63.0725 14.493 62.9525 13.8855 62.9525 13.1655C62.9525 12.4755 63.0875 11.8905 63.3575 11.4105C63.6425 10.9305 64.0175 10.548 64.4825 10.263C64.9475 9.97805 65.48 9.77555 66.08 9.65555C66.68 9.52055 67.3025 9.45305 67.9475 9.45305C68.3825 9.45305 68.765 9.47555 69.095 9.52055C69.44 9.55055 69.7175 9.59555 69.9275 9.65555V9.34055C69.9275 8.77055 69.755 8.31305 69.41 7.96805C69.065 7.62305 68.465 7.45055 67.61 7.45055C67.04 7.45055 66.4775 7.49555 65.9225 7.58555C65.3675 7.66055 64.8875 7.77305 64.4825 7.92305L64.055 5.22305C64.25 5.16305 64.49 5.10305 64.775 5.04305C65.075 4.96805 65.3975 4.90805 65.7425 4.86305C66.0875 4.80305 66.4475 4.75805 66.8225 4.72805C67.2125 4.68305 67.6025 4.66055 67.9925 4.66055ZM79.5741 14.403C80.1891 14.403 80.6241 14.343 80.8791 14.223C81.1341 14.103 81.2616 13.8705 81.2616 13.5255C81.2616 13.2555 81.0966 13.023 80.7666 12.828C80.4366 12.618 79.9341 12.3855 79.2591 12.1305C78.7341 11.9355 78.2541 11.733 77.8191 11.523C77.3991 11.313 77.0391 11.0655 76.7391 10.7805C76.4391 10.4805 76.2066 10.128 76.0416 9.72305C75.8766 9.31805 75.7941 8.83055 75.7941 8.26055C75.7941 7.15055 76.2066 6.27305 77.0316 5.62805C77.8566 4.98305 78.9891 4.66055 80.4291 4.66055C81.1491 4.66055 81.8391 4.72805 82.4991 4.86305C83.1591 4.98305 83.6841 5.11805 84.0741 5.26805L83.4891 7.87805C83.0991 7.74305 82.6716 7.62305 82.2066 7.51805C81.7566 7.41305 81.2466 7.36055 80.6766 7.36055C79.6266 7.36055 79.1016 7.65305 79.1016 8.23805C79.1016 8.37305 79.1241 8.49305 79.1691 8.59805C79.2141 8.70305 79.3041 8.80805 79.4391 8.91305C79.5741 9.00305 79.7541 9.10805 79.9791 9.22805C80.2191 9.33305 80.5191 9.45305 80.8791 9.58805C81.6141 9.85805 82.2216 10.128 82.7016 10.398C83.1816 10.653 83.5566 10.938 83.8266 11.253C84.1116 11.553 84.3066 11.8905 84.4116 12.2655C84.5316 12.6405 84.5916 13.0755 84.5916 13.5705C84.5916 14.7405 84.1491 15.6255 83.2641 16.2255C82.3941 16.8255 81.1566 17.1255 79.5516 17.1255C78.5016 17.1255 77.6241 17.0355 76.9191 16.8555C76.2291 16.6755 75.7491 16.5255 75.4791 16.4055L76.0416 13.683C76.6116 13.908 77.1966 14.088 77.7966 14.223C78.3966 14.343 78.9891 14.403 79.5741 14.403Z" fill="white"/>
</svg>
