<svg width="98" height="26" viewBox="0 0 98 26" fill="none" xmlns="http://www.w3.org/2000/svg">
<path d="M21.1917 25.8018H5.37024C2.77023 25.8018 0.663086 23.7157 0.663086 21.1417V5.47844C0.663086 2.90444 2.77023 0.818359 5.37024 0.818359H21.1917C23.7917 0.818359 25.8989 2.90444 25.8989 5.47844V21.1417C25.8989 23.7157 23.7917 25.8018 21.1917 25.8018Z" fill="white"/>
<path d="M17.8279 13.5398C18.2779 14.0984 18.5065 14.749 18.5065 15.4844C18.5065 16.5663 18.1422 17.4149 17.4136 18.016C16.685 18.617 15.6422 18.9282 14.285 18.9282H8.35645V6.30566H14.1422C15.4422 6.30566 16.4422 6.58852 17.1493 7.14717C17.8565 7.70581 18.2136 8.50488 18.2136 9.53731C18.2136 10.301 18.0065 10.9304 17.5993 11.4395C17.1922 11.9487 16.6565 12.274 15.9922 12.4295C16.7708 12.6134 17.3779 12.9811 17.8279 13.5398ZM11.435 11.4678H13.4565C14.5279 11.4678 15.0636 11.0152 15.0636 10.1101C15.0636 9.20496 14.5136 8.75238 13.4207 8.75238H11.435V11.4678ZM15.3493 15.0601C15.3493 14.6075 15.1993 14.254 14.8993 13.9994C14.5993 13.7448 14.1707 13.6175 13.6207 13.6175H11.4422V16.4532H13.6422C14.7779 16.4461 15.3493 15.9865 15.3493 15.0601Z" fill="black"/>
<path d="M40.5209 18.9282L37.7637 14.162H37.0638V18.9282H33.978V6.30566H39.2423C40.2495 6.30566 41.1066 6.47538 41.7995 6.82188C42.4995 7.16838 43.0209 7.64217 43.3709 8.24324C43.7209 8.84431 43.8923 9.53025 43.8923 10.3081C43.8923 11.2274 43.6352 12.0052 43.128 12.6487C42.6138 13.2923 41.878 13.7307 40.8995 13.9711L43.928 18.9353H40.5209V18.9282ZM37.0638 12.076H38.9709C39.5852 12.076 40.0352 11.9416 40.3209 11.6729C40.6066 11.4042 40.7566 11.0082 40.7566 10.4849C40.7566 9.98282 40.6066 9.59388 40.3138 9.30395C40.0209 9.0211 39.5709 8.8726 38.9709 8.8726H37.0638V12.076Z" fill="white"/>
<path d="M57.8495 16.6296H53.0709L52.278 18.9349H49.0352L53.7066 6.4043H57.2566L61.9281 18.9349H58.6495L57.8495 16.6296ZM57.0566 14.3031L55.4709 9.66423L53.8637 14.3031H57.0566Z" fill="white"/>
<path d="M78.9497 18.9282H75.864L70.7068 11.1779V18.9282H67.6211V6.30566H70.7068L75.864 14.1267V6.30566H78.9497V18.9282Z" fill="white"/>
<path d="M96.2502 15.8872C95.7145 16.8419 94.9431 17.5915 93.9431 18.1289C92.936 18.6663 91.7574 18.935 90.4002 18.935H85.5859V6.3125H90.4002C91.7717 6.3125 92.9574 6.57414 93.9502 7.09743C94.9502 7.62072 95.7145 8.35615 96.2502 9.31079C96.786 10.2654 97.0502 11.3544 97.0502 12.599C97.0502 13.8294 96.7788 14.9255 96.2502 15.8872ZM92.9288 15.2508C93.5931 14.6214 93.9288 13.7304 93.9288 12.5919C93.9288 11.4464 93.5931 10.5624 92.9288 9.93308C92.2645 9.30372 91.3288 8.9855 90.1217 8.9855H88.6645V16.1984H90.1217C91.3288 16.1984 92.2645 15.8872 92.9288 15.2508Z" fill="white"/>
</svg>
