<svg width="54" height="54" viewBox="0 0 54 54" fill="none" xmlns="http://www.w3.org/2000/svg">
<path fill-rule="evenodd" clip-rule="evenodd" d="M28.6092 5.17703L45.9545 22.916C46.778 23.762 47.2505 24.941 47.2505 26.1538V44.9998C47.2505 47.4815 45.3425 49.4998 43.0002 49.4998H33.7505H20.2505H10.9985C8.65624 49.4998 6.75049 47.4815 6.75049 44.9998V26.1538C6.75049 24.941 7.22299 23.762 8.04424 22.9183L25.3917 5.17703C26.24 4.31078 27.761 4.31078 28.6092 5.17703ZM42.728 44.9998H36.0005H11.2505L11.264 26.0615L26.996 9.97178L42.7505 26.1538L42.728 44.9998Z" fill="white"/>
<path fill-rule="evenodd" clip-rule="evenodd" d="M19.4029 29.622C20.5189 30.005 21.4079 30.939 21.7799 32.123L21.8199 32.243C22.2459 33.499 22.0729 34.851 21.3589 35.865C21.2289 36.049 21.2579 36.269 21.3949 36.373L23.4669 37.947C23.5399 38.002 23.6109 38.002 23.6549 37.997C23.7049 37.989 23.7779 37.962 23.8369 37.878L24.0679 37.55C24.7569 36.573 25.8669 35.97 27.0389 35.936C28.3549 35.909 29.5369 36.512 30.2729 37.575L30.3909 37.746C30.4499 37.83 30.5219 37.858 30.5729 37.866C30.6169 37.875 30.6889 37.872 30.7609 37.816L32.8219 36.261C32.9659 36.153 32.9979 35.922 32.8909 35.767L32.6309 35.392C31.9609 34.424 31.7619 33.168 32.0989 32.033C32.4649 30.797 33.3959 29.819 34.5909 29.419L34.7919 29.351C34.9529 29.298 35.0399 29.098 34.9829 28.914L34.1959 26.393C34.1589 26.275 34.0829 26.222 34.0409 26.2C33.9809 26.169 33.9159 26.164 33.8539 26.185L33.5139 26.298C32.3509 26.685 31.0679 26.475 30.0829 25.734L29.9749 25.653C29.0389 24.949 28.4819 23.814 28.4859 22.618L28.4879 22.338C28.4879 22.205 28.4249 22.122 28.3869 22.084C28.3509 22.047 28.2899 22.003 28.2039 22.003L25.6569 22C25.5009 22 25.3739 22.149 25.3729 22.333L25.3719 22.575C25.3669 23.79 24.7979 24.946 23.8499 25.669L23.7209 25.767C22.6779 26.56 21.3179 26.784 20.0859 26.364C20.0389 26.348 19.9949 26.351 19.9529 26.373C19.9209 26.389 19.8629 26.43 19.8349 26.521L19.0179 29.117C18.9589 29.306 19.0559 29.503 19.2389 29.566L19.4029 29.622ZM23.6139 40C23.1279 40 22.6559 39.842 22.2579 39.539L20.1859 37.966C19.1959 37.216 18.9769 35.773 19.6969 34.75C20.0709 34.22 20.1479 33.539 19.9279 32.893L19.8729 32.725C19.6899 32.143 19.2719 31.691 18.7549 31.514H18.7539L18.5909 31.457C17.3729 31.04 16.7229 29.749 17.1099 28.517L17.9259 25.922C18.1109 25.335 18.5099 24.861 19.0499 24.588C19.5779 24.322 20.1749 24.281 20.7329 24.472C21.3319 24.676 21.9969 24.565 22.5099 24.175L22.6389 24.077C23.0949 23.729 23.3699 23.164 23.3719 22.567L23.3729 22.326C23.3779 21.042 24.4029 20 25.6559 20H25.6599L28.2069 20.003C28.8089 20.004 29.3769 20.242 29.8049 20.673C30.2479 21.118 30.4899 21.713 30.4879 22.348L30.4859 22.627C30.4839 23.193 30.7429 23.728 31.1799 24.056L31.2869 24.137C31.7459 24.482 32.3439 24.581 32.8809 24.401L33.2199 24.288C33.7969 24.096 34.4109 24.143 34.9519 24.42C35.5069 24.704 35.9169 25.193 36.1049 25.798L36.8919 28.319C37.2719 29.537 36.6139 30.851 35.4269 31.248L35.2259 31.315C34.6499 31.509 34.1969 31.989 34.0159 32.601C33.8499 33.162 33.9459 33.779 34.2749 34.253L34.5349 34.628C35.2489 35.66 35.0209 37.108 34.0269 37.857L31.9659 39.413C31.4709 39.787 30.8639 39.938 30.2549 39.841C29.6409 39.742 29.1049 39.402 28.7459 38.884L28.6279 38.712C28.2779 38.208 27.7179 37.902 27.1309 37.935C26.5429 37.951 26.0349 38.23 25.7029 38.702L25.4719 39.03C25.1099 39.543 24.5729 39.878 23.9619 39.974C23.8449 39.992 23.7289 40 23.6139 40ZM27.0001 28.4999C26.1731 28.4999 25.5001 29.1729 25.5001 29.9999C25.5001 30.8269 26.1731 31.4999 27.0001 31.4999C27.8271 31.4999 28.5001 30.8269 28.5001 29.9999C28.5001 29.1729 27.8271 28.4999 27.0001 28.4999ZM27.0001 33.4999C25.0701 33.4999 23.5001 31.9299 23.5001 29.9999C23.5001 28.0699 25.0701 26.4999 27.0001 26.4999C28.9301 26.4999 30.5001 28.0699 30.5001 29.9999C30.5001 31.9299 28.9301 33.4999 27.0001 33.4999Z" fill="white"/>
<mask id="mask0_313_1362" style="mask-type:luminance" maskUnits="userSpaceOnUse" x="16" y="20" width="21" height="20">
<path fill-rule="evenodd" clip-rule="evenodd" d="M19.4029 29.622C20.5189 30.005 21.4079 30.939 21.7799 32.123L21.8199 32.243C22.2459 33.499 22.0729 34.851 21.3589 35.865C21.2289 36.049 21.2579 36.269 21.3949 36.373L23.4669 37.947C23.5399 38.002 23.6109 38.002 23.6549 37.997C23.7049 37.989 23.7779 37.962 23.8369 37.878L24.0679 37.55C24.7569 36.573 25.8669 35.97 27.0389 35.936C28.3549 35.909 29.5369 36.512 30.2729 37.575L30.3909 37.746C30.4499 37.83 30.5219 37.858 30.5729 37.866C30.6169 37.875 30.6889 37.872 30.7609 37.816L32.8219 36.261C32.9659 36.153 32.9979 35.922 32.8909 35.767L32.6309 35.392C31.9609 34.424 31.7619 33.168 32.0989 32.033C32.4649 30.797 33.3959 29.819 34.5909 29.419L34.7919 29.351C34.9529 29.298 35.0399 29.098 34.9829 28.914L34.1959 26.393C34.1589 26.275 34.0829 26.222 34.0409 26.2C33.9809 26.169 33.9159 26.164 33.8539 26.185L33.5139 26.298C32.3509 26.685 31.0679 26.475 30.0829 25.734L29.9749 25.653C29.0389 24.949 28.4819 23.814 28.4859 22.618L28.4879 22.338C28.4879 22.205 28.4249 22.122 28.3869 22.084C28.3509 22.047 28.2899 22.003 28.2039 22.003L25.6569 22C25.5009 22 25.3739 22.149 25.3729 22.333L25.3719 22.575C25.3669 23.79 24.7979 24.946 23.8499 25.669L23.7209 25.767C22.6779 26.56 21.3179 26.784 20.0859 26.364C20.0389 26.348 19.9949 26.351 19.9529 26.373C19.9209 26.389 19.8629 26.43 19.8349 26.521L19.0179 29.117C18.9589 29.306 19.0559 29.503 19.2389 29.566L19.4029 29.622ZM23.6139 40C23.1279 40 22.6559 39.842 22.2579 39.539L20.1859 37.966C19.1959 37.216 18.9769 35.773 19.6969 34.75C20.0709 34.22 20.1479 33.539 19.9279 32.893L19.8729 32.725C19.6899 32.143 19.2719 31.691 18.7549 31.514H18.7539L18.5909 31.457C17.3729 31.04 16.7229 29.749 17.1099 28.517L17.9259 25.922C18.1109 25.335 18.5099 24.861 19.0499 24.588C19.5779 24.322 20.1749 24.281 20.7329 24.472C21.3319 24.676 21.9969 24.565 22.5099 24.175L22.6389 24.077C23.0949 23.729 23.3699 23.164 23.3719 22.567L23.3729 22.326C23.3779 21.042 24.4029 20 25.6559 20H25.6599L28.2069 20.003C28.8089 20.004 29.3769 20.242 29.8049 20.673C30.2479 21.118 30.4899 21.713 30.4879 22.348L30.4859 22.627C30.4839 23.193 30.7429 23.728 31.1799 24.056L31.2869 24.137C31.7459 24.482 32.3439 24.581 32.8809 24.401L33.2199 24.288C33.7969 24.096 34.4109 24.143 34.9519 24.42C35.5069 24.704 35.9169 25.193 36.1049 25.798L36.8919 28.319C37.2719 29.537 36.6139 30.851 35.4269 31.248L35.2259 31.315C34.6499 31.509 34.1969 31.989 34.0159 32.601C33.8499 33.162 33.9459 33.779 34.2749 34.253L34.5349 34.628C35.2489 35.66 35.0209 37.108 34.0269 37.857L31.9659 39.413C31.4709 39.787 30.8639 39.938 30.2549 39.841C29.6409 39.742 29.1049 39.402 28.7459 38.884L28.6279 38.712C28.2779 38.208 27.7179 37.902 27.1309 37.935C26.5429 37.951 26.0349 38.23 25.7029 38.702L25.4719 39.03C25.1099 39.543 24.5729 39.878 23.9619 39.974C23.8449 39.992 23.7289 40 23.6139 40ZM27.0001 28.4999C26.1731 28.4999 25.5001 29.1729 25.5001 29.9999C25.5001 30.8269 26.1731 31.4999 27.0001 31.4999C27.8271 31.4999 28.5001 30.8269 28.5001 29.9999C28.5001 29.1729 27.8271 28.4999 27.0001 28.4999ZM27.0001 33.4999C25.0701 33.4999 23.5001 31.9299 23.5001 29.9999C23.5001 28.0699 25.0701 26.4999 27.0001 26.4999C28.9301 26.4999 30.5001 28.0699 30.5001 29.9999C30.5001 31.9299 28.9301 33.4999 27.0001 33.4999Z" fill="white"/>
</mask>
<g mask="url(#mask0_313_1362)">
<rect x="15" y="18" width="24" height="24" fill="white"/>
</g>
</svg>
