<svg width="30" height="35" viewBox="0 0 30 35" fill="none" xmlns="http://www.w3.org/2000/svg">
<path d="M25.8998 4.47611L16.7332 1.04277C15.7832 0.692773 14.2332 0.692773 13.2832 1.04277L4.1165 4.47611C2.34984 5.14277 0.916504 7.20944 0.916504 9.09277V22.5928C0.916504 23.9428 1.79984 25.7261 2.88317 26.5261L12.0498 33.3761C13.6665 34.5928 16.3165 34.5928 17.9332 33.3761L27.0998 26.5261C28.1832 25.7094 29.0665 23.9428 29.0665 22.5928V9.09277C29.0832 7.20944 27.6498 5.14277 25.8998 4.47611ZM20.7998 13.8094L13.6332 20.9761C13.3832 21.2261 13.0665 21.3428 12.7498 21.3428C12.4332 21.3428 12.1165 21.2261 11.8665 20.9761L9.19984 18.2761C8.7165 17.7928 8.7165 16.9928 9.19984 16.5094C9.68317 16.0261 10.4832 16.0261 10.9665 16.5094L12.7665 18.3094L19.0498 12.0261C19.5332 11.5428 20.3332 11.5428 20.8165 12.0261C21.2998 12.5094 21.2998 13.3261 20.7998 13.8094Z" fill="#3C91E6"/>
</svg>
