<svg width="89" height="31" viewBox="0 0 89 31" fill="none" xmlns="http://www.w3.org/2000/svg">
<path d="M0.050293 24.3335C2.34349 25.283 4.68028 26.0167 7.06067 26.5778C9.42362 27.1648 11.8302 27.5792 14.2367 27.8381C15.44 28.0021 16.652 28.0194 17.8465 28.1316C19.0585 28.1402 20.2618 28.2352 21.4651 28.1661L23.27 28.123C23.8716 28.1144 24.4733 28.0367 25.0749 28.0021C25.6765 27.9503 26.2782 27.9244 26.8711 27.8468L28.6586 27.5964C31.0564 27.3375 33.3845 26.785 35.7038 26.1203C38.0493 25.4815 40.2641 24.6356 42.6096 23.7551C45.0074 22.8832 47.6058 22.3135 50.239 22.5898C51.5382 22.7538 52.8461 23.1681 53.9099 23.9277C54.9824 24.6787 55.7497 25.7491 56.238 26.8713C55.5055 25.87 54.59 25.0499 53.535 24.5406C52.4799 24.0313 51.3202 23.8242 50.1693 23.8587C47.8412 23.8932 45.548 24.6615 43.3943 25.6283C41.2058 26.6987 38.8341 27.6655 36.445 28.4683C34.0384 29.2365 31.5534 29.8494 29.0335 30.1602C24.0199 30.8162 18.8842 30.8249 13.9315 29.8322C11.4465 29.3833 9.02253 28.6841 6.67701 27.795C4.34894 26.8713 2.07319 25.7923 0.050293 24.3335Z" fill="white"/>
<path d="M3.46711 16V6.3242H0.283258V4.55367H8.59233V6.3242H5.40848V16H3.46711ZM10.0336 16L8.30962 14.2761V9.61677L10.0336 7.8773H13.761L15.4849 9.61677V12.6298H10.1889V13.7791L10.8722 14.4624H15.3451V16H10.0336ZM10.1889 11.1854H13.6057V10.0206L12.9223 9.33721H10.8722L10.1889 10.0206V11.1854ZM19.2247 16L17.5008 14.2761V9.61677L19.2247 7.8773H23.1075L24.6606 9.39934V10.9214H22.7813V10.0206L22.098 9.33721H20.0634L19.38 10.0206V13.7791L20.0634 14.4624H24.5985V16H19.2247ZM26.5288 16V4.55367H28.408V9.07319L29.6039 7.8773H32.5082L34.2321 9.61677V16H32.3529V10.0516L31.7006 9.33721H30.0698L28.408 10.9835V16H26.5288ZM40.2415 16V4.55367H42.1829V9.15084H47.1994V4.55367H49.1408V16H47.1994V10.8592H42.1829V16H40.2415ZM53.1229 16L51.399 14.2761V9.61677L53.1229 7.8773H57.192L58.916 9.61677V14.2761L57.192 16H53.1229ZM53.9616 14.5556L56.3534 14.5401L57.0367 13.8567V10.0206L56.3534 9.33721H53.9616L53.2782 10.0206V13.8567L53.9616 14.5556ZM62.7406 16L61.0166 14.2761V7.8773H62.8959V13.8257L63.5482 14.5401H65.1168L66.7631 12.9249V7.8773H68.6424V16H66.7631V14.8352L65.5828 16H62.7406ZM71.0767 16V14.4624H75.3322L75.9534 13.8257V13.2976L75.2235 12.5677H72.2105L70.6263 11.0146V9.44593L72.1794 7.8773H76.963V9.41487H73.1113L72.5056 10.0206V10.3778L73.2045 11.0767H76.2485L77.8327 12.6298V14.4469L76.2796 16H71.0767ZM81.2728 16L79.5489 14.2761V9.61677L81.2728 7.8773H85.0002L86.7242 9.61677V12.6298H81.4281V13.7791L82.1115 14.4624H86.5844V16H81.2728ZM81.4281 11.1854H84.8449V10.0206L84.1616 9.33721H82.1115L81.4281 10.0206V11.1854Z" fill="white"/>
</svg>
