<svg width="40" height="41" viewBox="0 0 40 41" fill="none" xmlns="http://www.w3.org/2000/svg">
<path d="M20.0001 23.9424C11.6501 23.9424 4.8501 29.5424 4.8501 36.4424C4.8501 36.909 5.21676 37.2757 5.68343 37.2757H34.3168C34.7834 37.2757 35.1501 36.909 35.1501 36.4424C35.1501 29.5424 28.3501 23.9424 20.0001 23.9424Z" fill="#3C91E6"/>
<path d="M19.9998 3.94238C18.0332 3.94238 16.2332 4.62572 14.7998 5.77572C12.8832 7.29238 11.6665 9.64238 11.6665 12.2757C11.6665 13.8424 12.0998 15.309 12.8832 16.559C14.3165 18.9757 16.9498 20.609 19.9998 20.609C22.0998 20.609 24.0165 19.8424 25.4832 18.5257C26.1332 17.9757 26.6998 17.309 27.1332 16.559C27.8998 15.309 28.3332 13.8424 28.3332 12.2757C28.3332 7.67572 24.5998 3.94238 19.9998 3.94238ZM24.3165 11.3757L19.8665 15.4757C19.5665 15.759 19.1832 15.8924 18.7998 15.8924C18.3998 15.8924 17.9998 15.7424 17.6998 15.4424L15.6498 13.3757C15.0332 12.759 15.0332 11.7757 15.6498 11.159C16.2665 10.5424 17.2498 10.5424 17.8665 11.159L18.8498 12.1424L22.1998 9.05905C22.8332 8.47572 23.8165 8.50905 24.3998 9.14238C24.9832 9.79238 24.9498 10.7924 24.3165 11.3757Z" fill="#3C91E6"/>
</svg>
