<svg width="315" height="366" viewBox="0 0 315 366" fill="none" xmlns="http://www.w3.org/2000/svg">
<path d="M418.881 238.853C421.551 233.846 423.761 228.605 425.461 223.169C427.793 215.668 429.597 207.861 430.603 200.067C431.601 192.228 431.431 184.368 431.062 176.483C430.8 170.787 430.015 165.105 428.723 159.549C426.909 151.778 424.578 143.987 421.458 136.629C418.306 129.207 414.167 122.273 409.864 115.457C406.723 110.491 403.187 105.77 399.31 101.355C393.929 95.2354 387.977 89.549 381.74 84.3075C377.309 80.5746 372.598 77.1717 367.644 74.1844C360.986 70.1756 354.021 66.3982 346.786 63.5094C339.637 60.664 332.063 58.8118 324.521 57.3775C317.049 55.9549 309.701 56.1015 302.111 56.3891C294.432 56.6909 287.157 58.7461 279.874 61.1111C272.568 63.4797 265.986 67.4596 259.557 71.6096C255.025 74.5332 250.879 78.0131 247.04 81.7757C238.793 89.8938 231.533 98.6102 224.721 107.85C223.368 105.801 222.015 103.752 220.643 101.729C210.295 86.4751 198.945 71.894 186.703 58.1055C174.893 44.8087 162.168 31.794 147.512 21.5996C139.65 16.1241 131.105 11.3168 122.258 7.63181C119.015 6.28232 115.693 5.15119 112.275 4.28655C106.691 2.87361 101.01 1.43019 95.2388 0.927009C73.8599 -0.910453 52.5789 5.59171 35.7861 18.9267C31.0435 22.6838 26.8459 27.2118 22.8231 31.6894C20.2855 34.5029 17.9911 37.5523 15.9608 40.7541C10.7343 49.034 6.2676 57.9252 3.93745 67.4608C2.49766 73.3809 1.07312 79.2527 0.548961 85.3249C0.0223659 91.2375 0.269316 97.199 0.531505 103.112C0.981091 113.168 3.48218 122.681 6.40588 132.265C8.68063 139.7 11.7816 146.867 15.6711 153.6C20.9316 162.711 26.5534 171.433 33.6994 179.17C48.1701 194.835 65.2273 207.129 84.8943 215.478C94.5975 219.588 104.975 222.253 115.324 224.089C125.074 225.825 134.762 225.799 144.637 225.435C152.137 225.162 159.592 224.164 166.903 222.412C176.385 220.144 185.857 217.238 194.737 213.191C200.918 210.361 206.925 207.009 212.685 203.32C214.406 207.768 216.001 212.281 217.431 216.832C219.84 225.766 221.514 234.896 222.108 244.129C222.073 249.609 221.587 255.058 220.612 260.447C219.343 264.992 217.698 269.401 215.674 273.653C213.231 277.641 210.465 281.393 207.389 284.921C202.923 289.194 198.053 293.017 192.865 296.411C186.028 300.225 178.817 303.333 171.371 305.758C162.02 308.199 152.467 309.587 142.828 310.142C120.393 310.437 98.134 306.796 76.2093 302.233C69.7094 300.886 63.2401 299.441 56.7614 298.01C53.0942 297.516 49.5684 297.915 46.1874 299.228C42.5995 299.956 39.3982 301.537 36.5611 303.975C33.4318 306.3 31.1255 309.202 29.6106 312.7C27.5662 315.812 26.421 319.263 26.1881 323.06C25.7912 330.152 27.3406 337.77 32.1534 343.26L37.5681 348.437C41.6495 351.403 46.2069 353.116 51.2156 353.637C68.0728 357.379 84.971 361.092 102.088 363.444C121.189 366.054 140.647 366.733 159.847 364.698C168.975 363.732 177.777 361.721 186.571 359.151C195.311 356.601 203.811 353.62 211.916 349.445C220.909 344.809 229.755 339.396 237.525 332.885C245.084 326.556 252.147 319.196 257.866 311.136C261.461 306.051 264.401 300.511 267.23 294.988C269.004 291.541 270.482 287.958 271.729 284.286C273.614 278.65 274.946 272.77 276.081 266.944C276.774 263.382 277.243 259.776 277.491 256.148C278.713 238.821 276.497 221.365 271.678 204.721C268.925 195.201 265.934 185.845 262.151 176.684C260.016 171.501 257.678 166.408 255.245 161.364C260.368 154.312 265.234 147.072 270.361 140.043C274.124 134.863 278.09 129.812 282.364 125.043C285.694 121.818 289.244 118.833 293.081 116.214C295.508 114.938 298.008 113.833 300.58 112.9C302.954 112.375 305.353 112.007 307.777 111.795C311.438 111.889 315.069 112.297 318.681 112.948C323.934 114.436 329.029 116.441 333.936 118.841C340.19 122.537 346.042 126.868 351.471 131.7C356.642 136.996 361.292 142.763 365.337 148.957C368.39 154.452 370.955 160.183 372.984 166.137C374.407 171.729 375.32 177.425 375.739 183.176C375.686 189.117 375.079 195.03 373.935 200.869C372.478 206.026 370.6 211.056 368.268 215.894C366.107 219.494 363.691 222.928 361.016 226.175C358.638 229.203 357.172 232.579 356.641 236.297C355.522 239.766 355.308 243.321 356.034 246.966C356.483 250.667 357.772 253.972 359.908 256.925C361.575 260.307 363.999 263.055 367.197 265.2C373.235 269.193 380.691 271.669 387.988 270.182C390.27 269.512 392.553 268.842 394.849 268.181C399.451 266.138 403.243 263.092 406.222 259.019C411.339 252.791 415.134 245.938 418.925 238.846L418.881 238.853ZM138.391 170.122C131.853 170.048 125.361 169.397 118.946 168.149C111.84 166.223 104.944 163.601 98.3445 160.325C91.7073 156.45 85.4689 151.918 79.7326 146.803C74.7957 141.756 70.3374 136.267 66.4319 130.37C63.186 124.598 60.4917 118.556 58.397 112.258C57.1117 107.101 56.2688 101.851 55.8848 96.5401C55.9615 92.3333 56.3703 88.131 57.109 83.9907C58.0899 80.6579 59.3115 77.4013 60.7901 74.2525C62.6292 71.2867 64.6878 68.4804 66.9532 65.8243C69.1671 63.782 71.5208 61.9005 73.992 60.1833C76.0327 59.14 78.1227 58.1918 80.2821 57.3926C82.3923 56.9327 84.5331 56.5936 86.6951 56.3884C89.4207 56.4939 92.1264 56.7626 94.8192 57.2391C99.1335 58.4988 103.294 60.1601 107.332 62.1267C115.426 66.9025 122.868 72.6845 129.823 79.0008C147.515 96.3151 163.071 116.162 176.938 136.597C180.576 141.964 184.083 147.432 187.485 152.963C185.262 154.663 182.991 156.269 180.651 157.805C174.381 161.301 167.811 164.205 160.996 166.496C153.601 168.444 146.045 169.664 138.414 170.118L138.391 170.122Z" fill="#3C91E6"/>
</svg>
