<svg width="14" height="15" viewBox="0 0 14 15" fill="none" xmlns="http://www.w3.org/2000/svg">
<path d="M1.13895 13.6215C1.02506 13.6215 0.916838 13.5759 0.837112 13.4962C0.728911 13.388 0.683381 13.2286 0.723244 13.0805L1.44079 10.3983C0.96243 9.50989 0.711844 8.50761 0.711844 7.49394C0.711844 4.11695 3.45672 1.37207 6.83371 1.37207C10.2107 1.37207 12.9556 4.11695 12.9556 7.49394C12.9556 10.8709 10.2107 13.6158 6.83371 13.6158C5.80296 13.6158 4.795 13.3595 3.89523 12.8698L1.25285 13.6044C1.21299 13.6158 1.17881 13.6215 1.13895 13.6215ZM3.95216 11.9871C4.0262 11.9871 4.10023 12.0099 4.16857 12.0441C4.97153 12.5167 5.89408 12.7673 6.83371 12.7673C9.73804 12.7673 12.1014 10.404 12.1014 7.49964C12.1014 4.59531 9.73804 2.23198 6.83371 2.23198C3.92938 2.23198 1.56606 4.59531 1.56606 7.49964C1.56606 8.42788 1.81093 9.33335 2.2722 10.1306C2.32915 10.2274 2.34624 10.347 2.31777 10.4552L1.74829 12.5851L3.84396 12.0042C3.87813 11.9928 3.91799 11.9871 3.95216 11.9871Z" fill="#6F6F6F"/>
<path d="M8.39426 10.7801C8.04118 10.7801 7.67672 10.7004 7.29517 10.5352C6.9364 10.3815 6.57764 10.1764 6.23026 9.92018C5.88857 9.66962 5.55259 9.38487 5.24507 9.07735C4.93756 8.76414 4.65279 8.43386 4.40222 8.09217C4.14596 7.7334 3.94094 7.38032 3.79288 7.03294C3.63343 6.65708 3.55371 6.28693 3.55371 5.93385C3.55371 5.68328 3.59926 5.4441 3.68468 5.22201C3.7758 4.98852 3.92386 4.77781 4.11749 4.59558C4.48195 4.23681 5.00589 4.10584 5.42161 4.30516C5.56398 4.3678 5.68357 4.47031 5.77468 4.60698L6.43526 5.53521C6.5036 5.62633 6.55487 5.72314 6.59473 5.81995C6.64029 5.93385 6.66876 6.04776 6.66876 6.15596C6.66876 6.30402 6.62889 6.45208 6.54916 6.58306C6.49791 6.66848 6.42387 6.77099 6.32706 6.8678L6.25302 6.94752C6.28719 6.99308 6.32705 7.05002 6.38969 7.11835C6.50928 7.25503 6.64026 7.40309 6.78263 7.54546C6.925 7.68214 7.06737 7.81881 7.20974 7.9384C7.27807 7.99535 7.33505 8.04091 7.38061 8.06939L7.46031 7.98965C7.56281 7.88715 7.66534 7.80744 7.76785 7.75618C7.95577 7.63659 8.2462 7.60811 8.50246 7.71632C8.59358 7.75048 8.68469 7.80173 8.7815 7.87007L9.73255 8.54205C9.86353 8.63316 9.96601 8.75845 10.0344 8.90082C10.0913 9.04319 10.1141 9.16848 10.1141 9.29946C10.1141 9.4703 10.0742 9.63545 10.0002 9.7949C9.92615 9.94296 9.84072 10.0739 9.73821 10.1935C9.55598 10.3929 9.34529 10.5409 9.1175 10.6377C8.88971 10.7345 8.64483 10.7801 8.39426 10.7801ZM5.00587 5.07394C4.9717 5.07394 4.85783 5.07394 4.71546 5.21631C4.60726 5.31881 4.53321 5.42702 4.48196 5.54661C4.43071 5.6662 4.40793 5.80288 4.40793 5.93955C4.40793 6.17873 4.46487 6.43498 4.57876 6.70833C4.69835 6.99307 4.8749 7.29491 5.0913 7.59673C5.3134 7.89855 5.56397 8.20037 5.84302 8.47941C6.12206 8.75276 6.41818 9.00902 6.7257 9.23681C7.02182 9.45321 7.32366 9.62405 7.62548 9.75503C8.05828 9.94296 8.4569 9.98852 8.7815 9.85185C8.89539 9.80629 8.9979 9.72657 9.1004 9.62406C9.15166 9.56712 9.19154 9.51016 9.22571 9.43613C9.24279 9.39626 9.25417 9.3507 9.25417 9.31084C9.25417 9.29945 9.25416 9.28238 9.23707 9.24821L8.28606 8.58761C8.24619 8.55914 8.20632 8.53635 8.17215 8.52496C8.14937 8.53635 8.11523 8.55344 8.05259 8.61608L7.83618 8.83248C7.67103 8.99763 7.40908 9.04318 7.19837 8.96915L7.09587 8.9236C6.96489 8.85526 6.81681 8.75277 6.65166 8.6104C6.49221 8.47372 6.33847 8.33134 6.17332 8.17189C6.01387 8.00674 5.87149 7.85298 5.73481 7.69353C5.58675 7.51699 5.48425 7.37463 5.41591 7.25504L5.35327 7.10697C5.33619 7.05002 5.33047 6.98738 5.33047 6.93044C5.33047 6.77098 5.38744 6.62861 5.49564 6.51471L5.71205 6.29262C5.77469 6.22998 5.79746 6.19582 5.80885 6.17304C5.79176 6.13318 5.76899 6.099 5.74051 6.05914L5.0742 5.11951L5.00587 5.07394Z" fill="#6F6F6F"/>
</svg>
